<svg width="198" height="136" viewBox="0 0 198 136" fill="none" xmlns="http://www.w3.org/2000/svg">
<g clip-path="url(#clip0_523_230)">
<path d="M79.8122 97.7994C96.9551 106.916 152.374 109.229 170.571 101.56C168.68 100.714 167.355 99.9887 165.828 99.5163C163.088 98.4901 160.318 97.6054 157.608 96.4377C155.322 95.3603 154.491 93.7044 155.418 92.1265C156.435 90.124 158.022 90.3134 159.832 90.8459C166.899 93.0877 174.077 95.501 181.226 98.0558C184.532 99.2023 185.011 101.819 182.651 104.571C181.673 105.695 180.3 106.586 179.322 107.709C172.513 114.693 165.875 121.565 159.237 128.438C158.662 129.055 158.199 129.844 157.572 130.007C156.32 130.332 154.613 130.709 153.854 130.104C152.954 129.469 152.435 127.732 152.676 126.599C152.947 125.326 153.925 124.202 154.762 123.049C157.495 119.932 160.481 117.017 163.215 113.9C163.991 113.03 164.626 112.129 165.635 110.865C164.614 110.796 164.19 110.705 163.876 110.787C135.581 115.866 107.696 112.749 80.1992 105.721C76.1252 104.707 72.1715 103.127 68.5912 101.183C64.1104 98.6035 59.389 97.1562 54.3757 96.3865C44.5206 94.7354 35.3397 91.3048 27.1548 85.2755C22.5414 81.9283 18.5331 77.8222 15.4429 72.8758C8.68419 61.5289 8.76621 50.009 15.7403 38.7707C21.3238 29.8993 29.5695 23.8124 39.041 19.6132C57.0146 11.6005 75.6971 10.6904 94.7632 15.6305C96.1784 15.9313 97.3618 16.6266 98.5753 17.1803C100.213 17.8244 100.993 19.0256 100.461 20.8353C99.9283 22.6449 98.3928 22.9102 96.8361 22.5793C95.987 22.3989 95.0264 22.0468 94.1773 21.8663C79.3568 17.8286 64.5643 18.5301 49.899 22.8087C41.8393 25.2371 34.4994 29.1499 28.1324 34.7485C24.0865 38.4739 20.688 42.6327 18.8373 47.8601C15.81 56.5353 17.3291 64.6977 22.9188 71.8024C29.8457 80.9663 39.4936 85.6795 51.1194 88.7423C50.541 87.2881 50.1554 86.3187 49.7397 85.4908C49.4355 84.8344 48.9898 84.148 48.544 83.4616C42.6556 72.8913 43.4151 61.6633 51.0189 52.3339C52.8039 50.1987 54.7305 48.0937 56.8498 46.4734C75.1475 32.7608 94.9198 30.899 115.528 39.7169C124.73 43.7437 130.431 51.02 130.843 61.6094C131.127 68.6219 128.247 74.5179 123.617 79.5984C119.391 84.1729 114.243 87.5161 108.508 90.1428C100.803 93.6822 92.5208 95.7675 84.1056 97.085C82.7417 97.2388 81.4892 97.5642 79.8122 97.7994ZM103.103 41.809C92.4798 40.2907 80.8609 41.3709 71.5911 45.3172C65.7443 47.7723 60.4247 51.2269 56.3911 56.2862C50.6839 63.6521 49.9086 71.4747 54.55 79.5612C56.4957 82.9331 59.4109 85.9194 62.2146 88.734C63.4493 89.884 65.5119 90.6182 67.0987 90.8076C82.3281 91.5301 96.8854 89.1515 110.201 81.4799C113.745 79.4227 117.014 76.5677 119.576 73.5622C126.746 64.8802 125.061 54.02 115.683 48.0331C111.97 45.321 107.391 43.9038 103.103 41.809Z" fill="black"/>
</g>
<defs>
<clipPath id="clip0_523_230">
<rect width="180" height="99.9184" fill="white" transform="translate(177 135.159) rotate(-168)"/>
</clipPath>
</defs>
</svg>
