<svg width="230" height="178" viewBox="0 0 230 178" fill="none" xmlns="http://www.w3.org/2000/svg">
<g opacity="0.8" clip-path="url(#clip0_507_360)">
<path d="M46.7681 107.593C46.6485 104.103 46.3179 101.025 46.452 97.9392C47.6183 76.8533 57.9352 61.2276 75.3579 49.8973C84.6224 43.8404 94.9271 40.7941 106.145 41.3062C116.789 41.8012 126.1 45.5667 133.756 52.9905C147.065 65.9905 147.859 86.6053 135.623 100.518C130.135 106.755 123.218 111.16 115.735 114.512C97.7029 122.469 79.1953 123.968 60.0431 118.738C58.835 118.459 57.7368 118.206 56.0894 117.825C56.5206 118.964 56.673 119.807 57.0703 120.591C62.5396 130.973 71.0151 138.355 81.652 142.889C111.248 155.493 139.52 152.786 165.802 134.151C180.184 123.965 189.766 110.017 192.936 92.2795C195.212 79.4147 195.19 66.4812 192.955 53.6138C192.769 52.4165 192.448 51.3034 192.151 50.0807C192.033 49.5916 191.779 49.1868 191.382 48.4024C190.74 49.1778 190.149 49.7339 189.888 50.3661C187.887 54.5216 186.132 58.6182 184.131 62.7736C183.633 63.9285 183 65.1675 182.088 66.1113C181.607 66.6928 180.112 67.1556 179.613 66.8097C178.895 66.413 178.489 65.165 178.117 64.271C177.973 63.8916 178.32 63.3943 178.531 62.9813C182.025 55.3614 185.629 47.7669 189.233 40.1723C191.048 36.3203 192.873 35.9335 196.202 38.549C196.979 39.1902 197.672 39.6965 198.424 40.4473C204.864 47.1284 211.303 53.8096 217.497 60.5496C219.45 62.6164 221.081 65.0708 222.602 67.4998C223.278 68.5794 223.769 69.9624 223.82 71.244C223.888 71.9522 223.145 73.1659 222.385 73.4521C221.735 73.7637 220.712 73.1814 219.834 72.9786C219.504 72.9025 219.36 72.523 219.217 72.1435C214.973 64.4687 208.466 58.5801 202.61 52.3798C201.021 50.7433 199.517 49.2417 197.261 46.9893C197.312 48.2709 197.321 48.7346 197.464 49.1141C200.654 61.8555 200.676 74.789 199.084 87.6963C195.825 115.341 179.993 134.31 155.779 146.497C136.033 156.367 115.042 158.101 93.6172 152.693C83.5639 150.141 74.135 145.886 65.9723 139.154C58.9757 133.383 53.5415 126.356 50.2945 117.873C49.3475 115.461 47.9278 114.094 45.6888 112.769C41.2952 110.254 36.9269 107.63 33.1498 104.449C16.3259 90.6377 11.25 70.5348 19.9264 50.4902C27.995 31.575 42.4019 19.7793 62.9445 15.9799C66.8131 15.257 70.7835 15.5964 74.8298 15.6071C76.2236 15.5826 77.7106 16.1568 78.9779 16.6802C80.0255 17.153 80.7017 18.2325 80.0939 19.362C79.6972 20.0784 78.6668 20.5331 77.9911 20.9543C77.7209 21.1228 77.3069 20.9118 76.9774 20.8357C65.7838 18.7132 55.8086 21.8356 46.5355 27.4288C34.2896 34.8751 25.9306 45.5275 22.4218 59.7238C19.3684 71.9474 21.8983 83.0359 29.1668 93.1406C33.5701 99.1208 40.3471 104.841 46.7681 107.593ZM64.7806 114.753C78.8635 117.889 92.793 117.18 106.349 112.576C114.745 109.781 122.49 105.798 129.076 99.815C144.665 85.4063 140.45 63.078 125.199 52.9773C117.172 47.6611 108.276 45.6073 98.7053 46.9763C80.384 49.6725 67.1761 59.7826 58.0926 75.5776C52.3183 85.557 50.4977 96.4491 52.3773 107.849C52.7498 110.244 53.84 111.534 56.0112 112.151C59.061 112.971 61.8659 113.849 64.7806 114.753Z" fill="white"/>
</g>
<defs>
<clipPath id="clip0_507_360">
<rect width="204.276" height="135.225" fill="white" transform="translate(30.6475 0.134033) rotate(13)"/>
</clipPath>
</defs>
</svg>
