<svg width="264" height="245" viewBox="0 0 264 245" fill="none" xmlns="http://www.w3.org/2000/svg">
<g clip-path="url(#clip0_523_228)">
<path d="M96.4805 190.213C93.6433 187.744 90.9765 185.744 88.6444 183.372C72.8928 166.966 68.1629 147.362 72.0355 125.317C74.0695 113.572 79.2388 103.218 87.8819 94.7577C96.0897 86.7376 105.894 82.17 117.365 81.5925C137.38 80.6577 154.2 95.1743 156.172 115.03C157.052 123.934 155.442 132.618 152.586 140.973C145.609 161.021 133.196 176.699 115.009 187.943C113.902 188.69 112.896 189.369 111.386 190.387C112.6 190.884 113.376 191.383 114.286 191.646C126.48 194.964 138.52 193.71 149.903 188.662C181.569 174.608 200.202 150.351 204.828 115.963C207.369 97.1543 203.421 79.3616 191.778 63.8369C183.317 52.5951 173.114 43.1126 161.337 35.422C160.257 34.6892 159.145 34.1248 157.964 33.46C157.492 33.1941 156.987 33.0964 156.077 32.8333C156.216 33.9082 156.22 34.7823 156.526 35.4527C158.33 40.0806 160.267 44.4722 162.071 49.1001C162.615 50.3405 163.125 51.7492 163.199 53.1607C163.304 53.9669 162.57 55.4844 161.931 55.623C161.091 55.8973 159.81 55.3004 158.833 54.9368C158.428 54.7713 158.291 54.1334 158.121 53.6638C154.686 45.3147 151.351 36.8978 148.016 28.4808C146.315 24.2221 147.351 22.5009 151.856 21.7997C152.932 21.6584 153.84 21.4845 154.984 21.4436C164.976 21.2789 174.968 21.1141 184.826 21.1856C187.888 21.166 191.019 21.6839 194.05 22.2697C195.397 22.5301 196.847 23.1595 197.894 24.0606C198.501 24.5273 198.912 26.0039 198.579 26.8129C198.346 27.554 197.137 27.9315 196.332 28.4746C196.03 28.6782 195.625 28.5127 195.221 28.3472C186.059 26.0525 176.642 26.8522 167.457 26.9109C165.001 26.9603 162.713 27.0421 159.282 27.1649C160.329 28.0659 160.701 28.3997 161.105 28.5652C173.483 35.4116 183.686 44.8941 192.684 55.6282C212.064 78.4995 215.377 104.903 207.191 132.926C200.462 155.729 186.409 173.535 166.413 186.438C157.019 192.482 146.743 196.784 135.444 198.268C125.76 199.54 116.234 198.66 107.167 194.986C104.572 193.961 102.453 194.075 99.7648 194.865C94.5568 196.479 89.2811 197.992 84.0015 198.631C60.766 201.738 41.2038 190.97 31.7884 169.413C22.8163 149.165 24.1072 129.154 36.203 110.183C38.475 106.605 41.6586 103.727 44.639 100.547C45.6435 99.4316 47.1879 98.6822 48.531 98.0684C49.6728 97.5905 51.0198 97.8508 51.463 99.1591C51.7359 99.9978 51.3372 101.143 51.1727 101.985C51.1069 102.322 50.6366 102.493 50.3347 102.696C40.4413 109.954 35.574 120.104 33.1683 131.516C30.0389 146.631 32.2897 161.039 40.8941 174.23C48.2793 185.613 58.8713 191.765 72.169 193.462C80.1135 194.386 89.5966 193.249 96.4805 190.213ZM115.35 181.285C128.164 172.496 137.837 161.003 144.167 146.944C148.132 138.279 150.683 129.253 150.809 119.67C150.91 96.8091 130.227 83.7291 111.069 88.3228C100.986 90.7405 92.8344 96.2389 86.8833 104.782C75.55 121.194 73.8121 139.023 79.5813 157.779C83.2003 169.656 90.4423 179.091 100.802 185.983C102.962 187.449 104.779 187.538 106.86 186.281C109.745 184.481 112.497 182.917 115.35 181.285Z" fill="black"/>
</g>
<defs>
<clipPath id="clip0_523_228">
<rect width="220" height="145.634" fill="white" transform="translate(0 123.982) rotate(-34)"/>
</clipPath>
</defs>
</svg>
