<svg width="38" height="218" viewBox="0 0 38 218" fill="none" xmlns="http://www.w3.org/2000/svg">
<g clip-path="url(#clip0_523_159)">
<path d="M29.2797 205.638C29.2797 206.032 29.1922 206.436 29.0062 206.83C28.8203 207.224 28.5797 207.596 28.2625 207.946C27.7266 208.536 27.1359 208.963 26.4687 209.236C25.8125 209.51 25.1016 209.652 24.3359 209.652C23.2203 209.652 22.0281 209.389 20.7703 208.853C19.5125 208.317 18.2547 207.596 17.0078 206.688C15.75 205.769 14.5578 204.752 13.4203 203.625C12.2937 202.488 11.2766 201.296 10.3687 200.049C9.47187 198.802 8.75 197.555 8.225 196.319C7.7 195.072 7.4375 193.88 7.4375 192.742C7.4375 191.999 7.56875 191.288 7.83125 190.632C8.09375 189.964 8.50937 189.352 9.08906 188.805C9.78906 188.116 10.5547 187.777 11.3641 187.777C11.6703 187.777 11.9766 187.842 12.25 187.974C12.5344 188.105 12.7859 188.302 12.9828 188.586L15.5203 192.163C15.7172 192.436 15.8594 192.688 15.9578 192.928C16.0562 193.158 16.1109 193.388 16.1109 193.596C16.1109 193.858 16.0344 194.121 15.8812 194.372C15.7391 194.624 15.5312 194.886 15.2687 195.149L14.4375 196.013C14.3172 196.133 14.2625 196.275 14.2625 196.45C14.2625 196.538 14.2734 196.614 14.2953 196.702C14.3281 196.789 14.3609 196.855 14.3828 196.921C14.5797 197.282 14.9187 197.752 15.4 198.321C15.8922 198.889 16.4172 199.469 16.9859 200.049C17.5766 200.628 18.1453 201.164 18.725 201.657C19.2937 202.138 19.7641 202.466 20.1359 202.663C20.1906 202.685 20.2562 202.717 20.3328 202.75C20.4203 202.783 20.5078 202.794 20.6062 202.794C20.7922 202.794 20.9344 202.728 21.0547 202.608L21.8859 201.788C22.1594 201.514 22.4219 201.307 22.6734 201.175C22.925 201.022 23.1766 200.946 23.45 200.946C23.6578 200.946 23.8766 200.989 24.1172 201.088C24.3578 201.186 24.6094 201.328 24.8828 201.514L28.5031 204.085C28.7875 204.282 28.9844 204.511 29.1047 204.785C29.2141 205.058 29.2797 205.332 29.2797 205.638Z" fill="white"/>
</g>
<path d="M24.4387 133.239L18.3155 137.047L12.0524 133.239V133.24L12.0599 133.245V138.577L18.2449 142.467L24.4387 138.727V133.239Z" fill="white"/>
<path d="M26.0474 132.315L24.4393 133.241V138.729L29.4993 135.634V133.769C29.4993 133.769 28.8851 131.106 26.0474 132.315Z" fill="white"/>
<path d="M24.4393 138.728V145.846H28.3176C28.3176 145.846 29.4211 145.755 29.5006 144.753V135.632L24.4393 138.728Z" fill="white"/>
<path d="M12.0599 145.854V138.579L12.0524 138.574L12.0599 145.854Z" fill="white"/>
<path d="M12.0525 133.242L10.4533 132.321C7.61559 131.112 7.00012 133.774 7.00012 133.774V135.639L12.0525 138.573V133.242Z" fill="white"/>
<path d="M12.0524 133.24V138.572L12.0599 138.577V133.245L12.0524 133.24Z" fill="white"/>
<path d="M7 135.639V144.76C7.0782 145.763 8.18302 145.853 8.18302 145.853H12.0612L12.0524 138.573L7 135.639Z" fill="white"/>
<g clip-path="url(#clip1_523_159)">
<path d="M22.9578 67.7764H13.7922C9.81094 67.7764 7.4375 70.1498 7.4375 74.1311V83.2857C7.4375 87.2779 9.81094 89.6514 13.7922 89.6514H22.9469C26.9281 89.6514 29.3016 87.2779 29.3016 83.2967V74.1311C29.3125 70.1498 26.9391 67.7764 22.9578 67.7764ZM18.375 82.9576C16.0344 82.9576 14.1312 81.0545 14.1312 78.7139C14.1312 76.3732 16.0344 74.4701 18.375 74.4701C20.7156 74.4701 22.6187 76.3732 22.6187 78.7139C22.6187 81.0545 20.7156 82.9576 18.375 82.9576ZM24.85 73.1139C24.7953 73.2451 24.7187 73.3654 24.6203 73.4748C24.5109 73.5732 24.3906 73.6498 24.2594 73.7045C24.1281 73.7592 23.9859 73.792 23.8437 73.792C23.5484 73.792 23.275 73.6826 23.0672 73.4748C22.9687 73.3654 22.8922 73.2451 22.8375 73.1139C22.7828 72.9826 22.75 72.8404 22.75 72.6982C22.75 72.5561 22.7828 72.4139 22.8375 72.2826C22.8922 72.1404 22.9687 72.0311 23.0672 71.9217C23.3187 71.6701 23.7016 71.5498 24.0516 71.6264C24.1281 71.6373 24.1937 71.6592 24.2594 71.692C24.325 71.7139 24.3906 71.7467 24.4562 71.7904C24.5109 71.8232 24.5656 71.8779 24.6203 71.9217C24.7187 72.0311 24.7953 72.1404 24.85 72.2826C24.9047 72.4139 24.9375 72.5561 24.9375 72.6982C24.9375 72.8404 24.9047 72.9826 24.85 73.1139Z" fill="white"/>
</g>
<path d="M36.5 199.089C36.5 208.892 28.5531 216.839 18.75 216.839C8.94695 216.839 1 208.892 1 199.089C1 189.286 8.94695 181.339 18.75 181.339C28.5531 181.339 36.5 189.286 36.5 199.089Z" stroke="white" stroke-width="2"/>
<path d="M36.5 139.088C36.5 148.891 28.5531 156.838 18.75 156.838C8.94695 156.838 1 148.891 1 139.088C1 129.285 8.94695 121.338 18.75 121.338C28.5531 121.338 36.5 129.285 36.5 139.088Z" stroke="white" stroke-width="2"/>
<path d="M36.5 79.0899C36.5 88.8929 28.5531 96.8399 18.75 96.8399C8.94695 96.8399 1 88.8929 1 79.0899C1 69.2868 8.94695 61.3398 18.75 61.3398C28.5531 61.3398 36.5 69.2868 36.5 79.0899Z" stroke="white" stroke-width="2"/>
<path d="M36.5 19.0894C36.5 28.8924 28.5531 36.8394 18.75 36.8394C8.94695 36.8394 1 28.8924 1 19.0894C1 9.2863 8.94695 1.33936 18.75 1.33936C28.5531 1.33936 36.5 9.2863 36.5 19.0894Z" stroke="white" stroke-width="2"/>
<g clip-path="url(#clip2_523_159)">
<path d="M29.3125 23.2967C29.3125 27.2779 26.9391 29.6514 22.9578 29.6514H21.6562C21.0547 29.6514 20.5625 29.1592 20.5625 28.5576V22.2467C20.5625 21.9514 20.8031 21.6998 21.0984 21.6998L23.0234 21.667C23.1766 21.6561 23.3078 21.5467 23.3406 21.3936L23.7234 19.3045C23.7563 19.1076 23.6031 18.9217 23.3953 18.9217L21.0656 18.9545C20.7594 18.9545 20.5188 18.7139 20.5078 18.4186L20.4641 15.7389C20.4641 15.5639 20.6062 15.4108 20.7922 15.4108L23.4172 15.367C23.6031 15.367 23.7453 15.2248 23.7453 15.0389L23.7016 12.4139C23.7016 12.2279 23.5594 12.0857 23.3734 12.0857L20.4203 12.1295C18.6047 12.1623 17.1609 13.6498 17.1938 15.4654L17.2484 18.4732C17.2594 18.7795 17.0188 19.0201 16.7125 19.0311L15.4 19.0529C15.2141 19.0529 15.0719 19.1951 15.0719 19.381L15.1047 21.4592C15.1047 21.6451 15.2469 21.7873 15.4328 21.7873L16.7453 21.7654C17.0516 21.7654 17.2922 22.0061 17.3031 22.3014L17.4015 28.5358C17.4125 29.1483 16.9203 29.6514 16.3078 29.6514H13.7922C9.81093 29.6514 7.4375 27.2779 7.4375 23.2857V14.1311C7.4375 10.1498 9.81093 7.77637 13.7922 7.77637H22.9578C26.9391 7.77637 29.3125 10.1498 29.3125 14.1311V23.2967Z" fill="white"/>
</g>
<defs>
<clipPath id="clip0_523_159">
<rect width="26.25" height="26.25" fill="white" transform="translate(5.25 185.589)"/>
</clipPath>
<clipPath id="clip1_523_159">
<rect width="26.25" height="26.25" fill="white" transform="translate(5.25 65.5889)"/>
</clipPath>
<clipPath id="clip2_523_159">
<rect width="26.25" height="26.25" fill="white" transform="translate(5.25 5.58887)"/>
</clipPath>
</defs>
</svg>
