<svg width="26" height="26" viewBox="0 0 26 26" fill="none" xmlns="http://www.w3.org/2000/svg">
<g clip-path="url(#clip0_507_437)">
<path d="M23.8334 17.5393C23.8334 21.4826 21.4825 23.8334 17.5392 23.8334H16.25C15.6542 23.8334 15.1667 23.3459 15.1667 22.7501V16.4993C15.1667 16.2068 15.405 15.9576 15.6975 15.9576L17.6042 15.9251C17.7559 15.9143 17.8859 15.8059 17.9184 15.6543L18.2975 13.5851C18.33 13.3901 18.1784 13.2059 17.9725 13.2059L15.665 13.2384C15.3617 13.2384 15.1234 13.0001 15.1125 12.7076L15.0692 10.0534C15.0692 9.88008 15.21 9.72843 15.3942 9.72843L17.9942 9.68509C18.1783 9.68509 18.3192 9.54427 18.3192 9.3601L18.2758 6.76007C18.2758 6.57591 18.135 6.43509 17.9509 6.43509L15.0258 6.47843C13.2275 6.51093 11.7975 7.98425 11.83 9.78258L11.8842 12.7618C11.895 13.0651 11.6567 13.3034 11.3534 13.3143L10.0534 13.3359C9.86919 13.3359 9.72837 13.4767 9.72837 13.6609L9.76086 15.7193C9.76086 15.9034 9.90168 16.0443 10.0859 16.0443L11.3859 16.0226C11.6892 16.0226 11.9275 16.2609 11.9383 16.5534L12.0358 22.7284C12.0467 23.3351 11.5592 23.8334 10.9525 23.8334H8.46085C4.51752 23.8334 2.16669 21.4826 2.16669 17.5284V8.46091C2.16669 4.51758 4.51752 2.16675 8.46085 2.16675H17.5392C21.4825 2.16675 23.8334 4.51758 23.8334 8.46091V17.5393V17.5393Z" fill="white"/>
</g>
<defs>
<clipPath id="clip0_507_437">
<rect width="26" height="26" fill="white"/>
</clipPath>
</defs>
</svg>
