<svg width="27" height="27" viewBox="0 0 27 27" fill="none" xmlns="http://www.w3.org/2000/svg">
<g clip-path="url(#clip0_527_477)">
<path d="M24.0625 18.2327C24.0625 22.214 21.6891 24.5874 17.7078 24.5874H16.4062C15.8047 24.5874 15.3125 24.0952 15.3125 23.4937V17.1827C15.3125 16.8874 15.5531 16.6359 15.8484 16.6359L17.7734 16.603C17.9266 16.5921 18.0578 16.4827 18.0906 16.3296L18.4735 14.2405C18.5063 14.0437 18.3531 13.8577 18.1453 13.8577L15.8156 13.8905C15.5094 13.8905 15.2688 13.6499 15.2578 13.3546L15.2141 10.6749C15.2141 10.4999 15.3562 10.3468 15.5422 10.3468L18.1672 10.303C18.3531 10.303 18.4953 10.1609 18.4953 9.97492L18.4516 7.34989C18.4516 7.16395 18.3094 7.02178 18.1234 7.02178L15.1703 7.06554C13.3547 7.09835 11.911 8.58584 11.9438 10.4015L11.9984 13.4093C12.0094 13.7155 11.7688 13.9562 11.4625 13.9671L10.15 13.989C9.96406 13.989 9.82189 14.1311 9.82189 14.3171L9.8547 16.3952C9.8547 16.5812 9.99687 16.7233 10.1828 16.7233L11.4953 16.7015C11.8016 16.7015 12.0422 16.9421 12.0531 17.2374L12.1515 23.4718C12.1625 24.0843 11.6703 24.5874 11.0578 24.5874H8.54218C4.56093 24.5874 2.1875 22.214 2.1875 18.2218V9.06709C2.1875 5.08584 4.56093 2.7124 8.54218 2.7124H17.7078C21.6891 2.7124 24.0625 5.08584 24.0625 9.06709V18.2327V18.2327Z" fill="white"/>
</g>
<defs>
<clipPath id="clip0_527_477">
<rect width="26.25" height="26.25" fill="white" transform="translate(0 0.524902)"/>
</clipPath>
</defs>
</svg>
