<svg width="23" height="15" viewBox="0 0 23 15" fill="none" xmlns="http://www.w3.org/2000/svg">
<path d="M17.8267 1.26837L11.5676 5.16049L5.16534 1.26837V1.26942L5.17308 1.27468V6.7247L11.4954 10.701L17.8267 6.87828V1.26837Z" fill="white"/>
<path d="M19.4702 0.32198L17.8264 1.26871V6.87862L22.9987 3.71443V1.80835C22.9987 1.80835 22.3709 -0.91403 19.4702 0.32198Z" fill="white"/>
<path d="M17.8264 6.87824V14.1544H21.7907C21.7907 14.1544 22.9188 14.0618 23 13.0372V3.71405L17.8264 6.87824Z" fill="white"/>
<path d="M5.17308 14.1611V6.72505L5.16534 6.71979L5.17308 14.1611Z" fill="white"/>
<path d="M5.16483 1.27185L3.53011 0.330376C0.62938 -0.905635 0.000244141 1.81569 0.000244141 1.81569V3.72178L5.16483 6.72187V1.27185Z" fill="white"/>
<path d="M5.16534 1.26959V6.71961L5.17308 6.72487V1.27485L5.16534 1.26959Z" fill="white"/>
<path d="M-6.10352e-05 3.7204V13.0436C0.0798702 14.0692 1.20922 14.1607 1.20922 14.1607H5.17356L5.16453 6.71943L-6.10352e-05 3.7204Z" fill="white"/>
</svg>
