<svg width="26" height="26" viewBox="0 0 26 26" fill="none" xmlns="http://www.w3.org/2000/svg">
<g clip-path="url(#clip0_507_432)">
<path d="M17.5392 2.16675H8.46085C4.51752 2.16675 2.16669 4.51758 2.16669 8.46092V17.5284C2.16669 21.4826 4.51752 23.8334 8.46085 23.8334H17.5284C21.4717 23.8334 23.8225 21.4826 23.8225 17.5393V8.46092C23.8334 4.51758 21.4825 2.16675 17.5392 2.16675ZM13 17.2034C10.6817 17.2034 8.79669 15.3184 8.79669 13.0001C8.79669 10.6818 10.6817 8.79675 13 8.79675C15.3184 8.79675 17.2034 10.6818 17.2034 13.0001C17.2034 15.3184 15.3184 17.2034 13 17.2034ZM19.4134 7.45342C19.3592 7.58342 19.2834 7.70258 19.1859 7.81092C19.0775 7.90842 18.9584 7.98425 18.8284 8.03842C18.6984 8.09258 18.5575 8.12508 18.4167 8.12508C18.1242 8.12508 17.8534 8.01675 17.6475 7.81092C17.55 7.70258 17.4742 7.58342 17.42 7.45342C17.3659 7.32342 17.3334 7.18258 17.3334 7.04175C17.3334 6.90092 17.3659 6.76008 17.42 6.63008C17.4742 6.48925 17.55 6.38092 17.6475 6.27258C17.8967 6.02342 18.2759 5.90425 18.6225 5.98008C18.6984 5.99092 18.7634 6.01258 18.8284 6.04508C18.8934 6.06675 18.9584 6.09925 19.0234 6.14258C19.0775 6.17508 19.1317 6.22925 19.1859 6.27258C19.2834 6.38092 19.3592 6.48925 19.4134 6.63008C19.4675 6.76008 19.5 6.90092 19.5 7.04175C19.5 7.18258 19.4675 7.32342 19.4134 7.45342Z" fill="white"/>
</g>
<defs>
<clipPath id="clip0_507_432">
<rect width="26" height="26" fill="white"/>
</clipPath>
</defs>
</svg>
