<svg width="27" height="27" viewBox="0 0 27 27" fill="none" xmlns="http://www.w3.org/2000/svg">
<g clip-path="url(#clip0_527_474)">
<path d="M18.4578 2.7124H9.29219C5.31094 2.7124 2.9375 5.08584 2.9375 9.06709V18.2218C2.9375 22.214 5.31094 24.5874 9.29219 24.5874H18.4469C22.4281 24.5874 24.8016 22.214 24.8016 18.2327V9.06709C24.8125 5.08584 22.4391 2.7124 18.4578 2.7124ZM13.875 17.8937C11.5344 17.8937 9.63125 15.9905 9.63125 13.6499C9.63125 11.3093 11.5344 9.40615 13.875 9.40615C16.2156 9.40615 18.1188 11.3093 18.1188 13.6499C18.1188 15.9905 16.2156 17.8937 13.875 17.8937ZM20.35 8.0499C20.2953 8.18115 20.2187 8.30146 20.1203 8.41084C20.0109 8.50928 19.8906 8.58584 19.7594 8.64053C19.6281 8.69521 19.4859 8.72803 19.3438 8.72803C19.0484 8.72803 18.775 8.61865 18.5672 8.41084C18.4688 8.30146 18.3922 8.18115 18.3375 8.0499C18.2828 7.91865 18.25 7.77646 18.25 7.63428C18.25 7.49209 18.2828 7.3499 18.3375 7.21865C18.3922 7.07646 18.4688 6.96709 18.5672 6.85771C18.8188 6.60615 19.2016 6.48584 19.5516 6.5624C19.6281 6.57334 19.6937 6.59521 19.7594 6.62803C19.825 6.6499 19.8906 6.68271 19.9562 6.72646C20.0109 6.75928 20.0656 6.81396 20.1203 6.85771C20.2187 6.96709 20.2953 7.07646 20.35 7.21865C20.4047 7.3499 20.4375 7.49209 20.4375 7.63428C20.4375 7.77646 20.4047 7.91865 20.35 8.0499Z" fill="white"/>
</g>
<defs>
<clipPath id="clip0_527_474">
<rect width="26.25" height="26.25" fill="white" transform="translate(0.75 0.524902)"/>
</clipPath>
</defs>
</svg>
