<svg width="26" height="26" viewBox="0 0 26 26" fill="none" xmlns="http://www.w3.org/2000/svg">
<g clip-path="url(#clip0_507_423)">
<path d="M23.8009 19.8576C23.8009 20.2476 23.7142 20.6484 23.53 21.0384C23.3459 21.4284 23.1075 21.7968 22.7934 22.1434C22.2625 22.7284 21.6775 23.1509 21.0167 23.4218C20.3667 23.6926 19.6625 23.8334 18.9042 23.8334C17.7992 23.8334 16.6184 23.5734 15.3725 23.0426C14.1267 22.5118 12.8809 21.7968 11.6459 20.8976C10.4 19.9876 9.21919 18.9801 8.09252 17.8643C6.97669 16.7376 5.96919 15.5568 5.07002 14.3218C4.18169 13.0868 3.46669 11.8518 2.94669 10.6276C2.42669 9.39258 2.16669 8.21175 2.16669 7.08508C2.16669 6.34842 2.29669 5.64425 2.55669 4.99425C2.81669 4.33342 3.22835 3.72675 3.80252 3.18508C4.49585 2.50258 5.25419 2.16675 6.05585 2.16675C6.35919 2.16675 6.66252 2.23175 6.93335 2.36175C7.21502 2.49175 7.46419 2.68675 7.65919 2.96842L10.1725 6.51092C10.3675 6.78175 10.5084 7.03092 10.6059 7.26925C10.7034 7.49675 10.7575 7.72425 10.7575 7.93008C10.7575 8.19008 10.6817 8.45008 10.53 8.69925C10.3892 8.94842 10.1834 9.20842 9.92335 9.46842L9.10002 10.3243C8.98085 10.4434 8.92669 10.5843 8.92669 10.7576C8.92669 10.8443 8.93752 10.9201 8.95919 11.0068C8.99169 11.0934 9.02419 11.1584 9.04585 11.2234C9.24085 11.5809 9.57669 12.0468 10.0534 12.6101C10.5409 13.1734 11.0609 13.7476 11.6242 14.3218C12.2092 14.8959 12.7725 15.4268 13.3467 15.9143C13.91 16.3909 14.3759 16.7159 14.7442 16.9109C14.7984 16.9326 14.8634 16.9651 14.9392 16.9976C15.0259 17.0301 15.1125 17.0409 15.21 17.0409C15.3942 17.0409 15.535 16.9759 15.6542 16.8568L16.4775 16.0443C16.7484 15.7734 17.0084 15.5676 17.2575 15.4376C17.5067 15.2859 17.7559 15.2101 18.0267 15.2101C18.2325 15.2101 18.4492 15.2534 18.6875 15.3509C18.9259 15.4484 19.175 15.5893 19.4459 15.7734L23.0317 18.3193C23.3134 18.5143 23.5084 18.7418 23.6275 19.0126C23.7359 19.2834 23.8009 19.5543 23.8009 19.8576Z" fill="white"/>
</g>
<defs>
<clipPath id="clip0_507_423">
<rect width="26" height="26" fill="white"/>
</clipPath>
</defs>
</svg>
