<svg width="428" height="40" viewBox="0 0 428 40" fill="none" xmlns="http://www.w3.org/2000/svg">
<g filter="url(#filter0_d_507_223)">
<path d="M409.278 31.2C405.36 31.2 401.603 29.6438 398.833 26.8736C396.063 24.1035 394.506 20.3464 394.506 16.4289C394.506 12.5113 396.063 8.75421 398.833 5.98408C401.603 3.21396 405.36 1.65771 409.278 1.65771V16.4289L409.278 31.2Z" fill="#FDF0AA"/>
</g>
<g opacity="0.85" clip-path="url(#clip0_507_223)">
<path d="M406.487 3.43556C407.171 3.47159 407.856 3.54365 408.504 3.57968C412.323 3.83191 415.926 4.80477 419.205 6.78653C422.663 8.84035 425.329 11.6508 426.843 15.4342C428.608 19.7941 427.779 23.5414 424.321 26.7482C423.96 27.0725 423.564 27.3968 423.168 27.7211C420.826 29.4866 418.124 30.5316 415.241 30.9639C410.486 31.6846 405.838 31.1801 401.335 29.4146C398.596 28.3336 396.255 26.7482 394.489 24.3341C391.463 20.1904 391.102 15.7945 393.588 11.2545C394.489 9.59702 395.678 8.11971 397.047 6.82256C397.299 6.57033 397.588 6.31811 397.768 5.88573C397.516 5.88573 397.263 5.8497 397.047 5.92176C395.57 6.42621 394.057 6.93065 392.616 7.50716C391.535 7.93955 391.139 7.97558 390.886 7.47113C390.67 6.96669 390.922 6.57033 391.895 6.02986C393.697 4.9489 395.714 4.40842 397.768 4.0481C398.416 3.94 399.065 3.83191 399.713 3.75984C400.758 3.65175 401.695 3.36349 402.668 2.89508C407.207 0.697131 411.963 -0.203668 416.971 0.336811C418.952 0.553003 420.862 1.12951 422.591 2.2465C422.915 2.46269 423.276 2.67889 423.456 3.00317C423.6 3.2554 423.564 3.68778 423.384 3.90397C423.276 4.0481 422.843 4.0481 422.555 4.01207C422.411 4.01207 422.303 3.86794 422.159 3.79588C420.502 2.64285 418.592 2.13841 416.647 1.95825C413.404 1.66999 410.197 2.03031 407.099 2.96714C406.919 3.00317 406.739 3.11127 406.559 3.18333C406.559 3.18333 406.559 3.2554 406.487 3.43556ZM411.891 29.5947C412.683 29.5227 414.161 29.4506 415.638 29.1624C418.88 28.5498 421.763 27.2166 424.032 24.6944C425.618 22.9288 426.374 20.875 425.978 18.4609C425.546 15.9747 424.393 13.8128 422.771 11.9391C420.285 9.0205 417.079 7.18288 413.404 6.13795C409.801 5.09303 406.126 5.09303 402.415 5.23715C402.055 5.23715 401.659 5.41731 401.335 5.59747C398.416 7.47113 396.074 9.84924 394.597 12.984C393.3 15.7585 393.264 18.569 394.597 21.3074C396.038 24.262 398.38 26.2798 401.371 27.5769C404.505 28.9101 407.784 29.4866 411.891 29.5947Z" fill="#BA9465"/>
</g>
<g filter="url(#filter1_d_507_223)">
<ellipse cx="363.488" cy="16.4289" rx="14.7712" ry="14.7711" fill="#FDF0AA"/>
</g>
<g opacity="0.85" clip-path="url(#clip1_507_223)">
<path d="M360.696 3.43556C361.381 3.47159 362.065 3.54365 362.714 3.57968C366.533 3.83191 370.136 4.80477 373.414 6.78653C376.873 8.84035 379.539 11.6508 381.052 15.4342C382.818 19.7941 381.989 23.5414 378.53 26.7482C378.17 27.0725 377.774 27.3968 377.377 27.7211C375.036 29.4866 372.334 30.5316 369.451 30.9639C364.696 31.6846 360.048 31.1801 355.544 29.4146C352.806 28.3336 350.464 26.7482 348.699 24.3341C345.673 20.1904 345.312 15.7945 347.798 11.2545C348.699 9.59702 349.888 8.11971 351.257 6.82256C351.509 6.57033 351.797 6.31811 351.978 5.88573C351.725 5.88573 351.473 5.8497 351.257 5.92176C349.78 6.42621 348.267 6.93065 346.826 7.50716C345.745 7.93955 345.348 7.97558 345.096 7.47113C344.88 6.96669 345.132 6.57033 346.105 6.02986C347.906 4.9489 349.924 4.40842 351.978 4.0481C352.626 3.94 353.275 3.83191 353.923 3.75984C354.968 3.65175 355.905 3.36349 356.877 2.89508C361.417 0.697131 366.173 -0.203668 371.181 0.336811C373.162 0.553003 375.072 1.12951 376.801 2.2465C377.125 2.46269 377.486 2.67889 377.666 3.00317C377.81 3.2554 377.774 3.68778 377.594 3.90397C377.486 4.0481 377.053 4.0481 376.765 4.01207C376.621 4.01207 376.513 3.86794 376.369 3.79588C374.711 2.64285 372.802 2.13841 370.856 1.95825C367.614 1.66999 364.407 2.03031 361.309 2.96714C361.129 3.00317 360.949 3.11127 360.768 3.18333C360.768 3.18333 360.768 3.2554 360.696 3.43556ZM366.101 29.5947C366.893 29.5227 368.37 29.4506 369.848 29.1624C373.09 28.5498 375.972 27.2166 378.242 24.6944C379.827 22.9288 380.584 20.875 380.188 18.4609C379.755 15.9747 378.602 13.8128 376.981 11.9391C374.495 9.0205 371.289 7.18288 367.614 6.13795C364.011 5.09303 360.336 5.09303 356.625 5.23715C356.265 5.23715 355.869 5.41731 355.544 5.59747C352.626 7.47113 350.284 9.84924 348.807 12.984C347.51 15.7585 347.474 18.569 348.807 21.3074C350.248 24.262 352.59 26.2798 355.58 27.5769C358.715 28.9101 361.993 29.4866 366.101 29.5947Z" fill="#BA9465"/>
</g>
<g filter="url(#filter2_d_507_223)">
<ellipse cx="317.698" cy="16.4289" rx="14.7712" ry="14.7711" fill="#FDF0AA"/>
</g>
<g opacity="0.85" clip-path="url(#clip2_507_223)">
<path d="M314.906 3.43556C315.59 3.47159 316.275 3.54365 316.924 3.57968C320.743 3.83191 324.345 4.80477 327.624 6.78653C331.083 8.84035 333.749 11.6508 335.262 15.4342C337.027 19.7941 336.199 23.5414 332.74 26.7482C332.38 27.0725 331.983 27.3968 331.587 27.7211C329.245 29.4866 326.543 30.5316 323.661 30.9639C318.905 31.6846 314.257 31.1801 309.754 29.4146C307.016 28.3336 304.674 26.7482 302.909 24.3341C299.882 20.1904 299.522 15.7945 302.008 11.2545C302.909 9.59702 304.097 8.11971 305.467 6.82256C305.719 6.57033 306.007 6.31811 306.187 5.88573C305.935 5.88573 305.683 5.8497 305.467 5.92176C303.989 6.42621 302.476 6.93065 301.035 7.50716C299.954 7.93955 299.558 7.97558 299.306 7.47113C299.09 6.96669 299.342 6.57033 300.314 6.02986C302.116 4.9489 304.133 4.40842 306.187 4.0481C306.836 3.94 307.484 3.83191 308.133 3.75984C309.177 3.65175 310.114 3.36349 311.087 2.89508C315.626 0.697131 320.382 -0.203668 325.39 0.336811C327.372 0.553003 329.281 1.12951 331.011 2.2465C331.335 2.46269 331.695 2.67889 331.875 3.00317C332.019 3.2554 331.983 3.68778 331.803 3.90397C331.695 4.0481 331.263 4.0481 330.975 4.01207C330.83 4.01207 330.722 3.86794 330.578 3.79588C328.921 2.64285 327.011 2.13841 325.066 1.95825C321.823 1.66999 318.617 2.03031 315.518 2.96714C315.338 3.00317 315.158 3.11127 314.978 3.18333C314.978 3.18333 314.978 3.2554 314.906 3.43556ZM320.31 29.5947C321.103 29.5227 322.58 29.4506 324.057 29.1624C327.3 28.5498 330.182 27.2166 332.452 24.6944C334.037 22.9288 334.794 20.875 334.397 18.4609C333.965 15.9747 332.812 13.8128 331.191 11.9391C328.705 9.0205 325.498 7.18288 321.823 6.13795C318.221 5.09303 314.546 5.09303 310.835 5.23715C310.474 5.23715 310.078 5.41731 309.754 5.59747C306.836 7.47113 304.494 9.84924 303.017 12.984C301.72 15.7585 301.684 18.569 303.017 21.3074C304.458 24.262 306.8 26.2798 309.79 27.5769C312.924 28.9101 316.203 29.4866 320.31 29.5947Z" fill="#BA9465"/>
</g>
<g filter="url(#filter3_d_507_223)">
<ellipse cx="271.907" cy="16.4289" rx="14.7712" ry="14.7711" fill="#FDF0AA"/>
</g>
<g opacity="0.85" clip-path="url(#clip3_507_223)">
<path d="M269.115 3.43556C269.799 3.47159 270.484 3.54365 271.132 3.57968C274.951 3.83191 278.554 4.80477 281.833 6.78653C285.292 8.84035 287.958 11.6508 289.471 15.4342C291.236 19.7941 290.408 23.5414 286.949 26.7482C286.589 27.0725 286.192 27.3968 285.796 27.7211C283.454 29.4866 280.752 30.5316 277.87 30.9639C273.114 31.6846 268.466 31.1801 263.963 29.4146C261.225 28.3336 258.883 26.7482 257.118 24.3341C254.091 20.1904 253.731 15.7945 256.217 11.2545C257.118 9.59702 258.306 8.11971 259.676 6.82256C259.928 6.57033 260.216 6.31811 260.396 5.88573C260.144 5.88573 259.892 5.8497 259.676 5.92176C258.198 6.42621 256.685 6.93065 255.244 7.50716C254.163 7.93955 253.767 7.97558 253.515 7.47113C253.299 6.96669 253.551 6.57033 254.523 6.02986C256.325 4.9489 258.342 4.40842 260.396 4.0481C261.045 3.94 261.693 3.83191 262.342 3.75984C263.386 3.65175 264.323 3.36349 265.296 2.89508C269.835 0.697131 274.591 -0.203668 279.599 0.336811C281.581 0.553003 283.49 1.12951 285.22 2.2465C285.544 2.46269 285.904 2.67889 286.084 3.00317C286.228 3.2554 286.192 3.68778 286.012 3.90397C285.904 4.0481 285.472 4.0481 285.184 4.01207C285.039 4.01207 284.931 3.86794 284.787 3.79588C283.13 2.64285 281.22 2.13841 279.275 1.95825C276.032 1.66999 272.826 2.03031 269.727 2.96714C269.547 3.00317 269.367 3.11127 269.187 3.18333C269.187 3.18333 269.187 3.2554 269.115 3.43556ZM274.519 29.5947C275.312 29.5227 276.789 29.4506 278.266 29.1624C281.509 28.5498 284.391 27.2166 286.661 24.6944C288.246 22.9288 289.003 20.875 288.606 18.4609C288.174 15.9747 287.021 13.8128 285.4 11.9391C282.914 9.0205 279.707 7.18288 276.032 6.13795C272.43 5.09303 268.755 5.09303 265.044 5.23715C264.683 5.23715 264.287 5.41731 263.963 5.59747C261.045 7.47113 258.703 9.84924 257.226 12.984C255.929 15.7585 255.893 18.569 257.226 21.3074C258.667 24.262 261.009 26.2798 263.999 27.5769C267.133 28.9101 270.412 29.4866 274.519 29.5947Z" fill="#BA9465"/>
</g>
<g filter="url(#filter4_d_507_223)">
<ellipse cx="226.117" cy="16.4289" rx="14.7712" ry="14.7711" fill="#FDF0AA"/>
</g>
<g opacity="0.85" clip-path="url(#clip4_507_223)">
<path d="M223.325 3.43556C224.01 3.47159 224.694 3.54365 225.343 3.57968C229.162 3.83191 232.764 4.80477 236.043 6.78653C239.502 8.84035 242.168 11.6508 243.681 15.4342C245.446 19.7941 244.618 23.5414 241.159 26.7482C240.799 27.0725 240.402 27.3968 240.006 27.7211C237.664 29.4866 234.962 30.5316 232.08 30.9639C227.324 31.6846 222.677 31.1801 218.173 29.4146C215.435 28.3336 213.093 26.7482 211.328 24.3341C208.301 20.1904 207.941 15.7945 210.427 11.2545C211.328 9.59702 212.517 8.11971 213.886 6.82256C214.138 6.57033 214.426 6.31811 214.606 5.88573C214.354 5.88573 214.102 5.8497 213.886 5.92176C212.408 6.42621 210.895 6.93065 209.454 7.50716C208.373 7.93955 207.977 7.97558 207.725 7.47113C207.509 6.96669 207.761 6.57033 208.734 6.02986C210.535 4.9489 212.553 4.40842 214.606 4.0481C215.255 3.94 215.903 3.83191 216.552 3.75984C217.597 3.65175 218.533 3.36349 219.506 2.89508C224.046 0.697131 228.801 -0.203668 233.809 0.336811C235.791 0.553003 237.7 1.12951 239.43 2.2465C239.754 2.46269 240.114 2.67889 240.294 3.00317C240.438 3.2554 240.402 3.68778 240.222 3.90397C240.114 4.0481 239.682 4.0481 239.394 4.01207C239.25 4.01207 239.141 3.86794 238.997 3.79588C237.34 2.64285 235.431 2.13841 233.485 1.95825C230.242 1.66999 227.036 2.03031 223.938 2.96714C223.757 3.00317 223.577 3.11127 223.397 3.18333C223.397 3.18333 223.397 3.2554 223.325 3.43556ZM228.729 29.5947C229.522 29.5227 230.999 29.4506 232.476 29.1624C235.719 28.5498 238.601 27.2166 240.871 24.6944C242.456 22.9288 243.213 20.875 242.816 18.4609C242.384 15.9747 241.231 13.8128 239.61 11.9391C237.124 9.0205 233.917 7.18288 230.242 6.13795C226.64 5.09303 222.965 5.09303 219.254 5.23715C218.894 5.23715 218.497 5.41731 218.173 5.59747C215.255 7.47113 212.913 9.84924 211.436 12.984C210.139 15.7585 210.103 18.569 211.436 21.3074C212.877 24.262 215.219 26.2798 218.209 27.5769C221.344 28.9101 224.622 29.4866 228.729 29.5947Z" fill="#BA9465"/>
</g>
<line opacity="0.75" x1="0.0133208" y1="15.17" x2="200.009" y2="16.502" stroke="black" stroke-width="4" stroke-dasharray="2 4 6 8"/>
<defs>
<filter id="filter0_d_507_223" x="392.506" y="1.65771" width="22.7712" height="37.5422" filterUnits="userSpaceOnUse" color-interpolation-filters="sRGB">
<feFlood flood-opacity="0" result="BackgroundImageFix"/>
<feColorMatrix in="SourceAlpha" type="matrix" values="0 0 0 0 0 0 0 0 0 0 0 0 0 0 0 0 0 0 127 0" result="hardAlpha"/>
<feOffset dx="2" dy="4"/>
<feGaussianBlur stdDeviation="2"/>
<feComposite in2="hardAlpha" operator="out"/>
<feColorMatrix type="matrix" values="0 0 0 0 0 0 0 0 0 0 0 0 0 0 0 0 0 0 0.25 0"/>
<feBlend mode="normal" in2="BackgroundImageFix" result="effect1_dropShadow_507_223"/>
<feBlend mode="normal" in="SourceGraphic" in2="effect1_dropShadow_507_223" result="shape"/>
</filter>
<filter id="filter1_d_507_223" x="346.717" y="1.65771" width="37.5423" height="37.5422" filterUnits="userSpaceOnUse" color-interpolation-filters="sRGB">
<feFlood flood-opacity="0" result="BackgroundImageFix"/>
<feColorMatrix in="SourceAlpha" type="matrix" values="0 0 0 0 0 0 0 0 0 0 0 0 0 0 0 0 0 0 127 0" result="hardAlpha"/>
<feOffset dx="2" dy="4"/>
<feGaussianBlur stdDeviation="2"/>
<feComposite in2="hardAlpha" operator="out"/>
<feColorMatrix type="matrix" values="0 0 0 0 0 0 0 0 0 0 0 0 0 0 0 0 0 0 0.25 0"/>
<feBlend mode="normal" in2="BackgroundImageFix" result="effect1_dropShadow_507_223"/>
<feBlend mode="normal" in="SourceGraphic" in2="effect1_dropShadow_507_223" result="shape"/>
</filter>
<filter id="filter2_d_507_223" x="300.926" y="1.65771" width="37.5423" height="37.5422" filterUnits="userSpaceOnUse" color-interpolation-filters="sRGB">
<feFlood flood-opacity="0" result="BackgroundImageFix"/>
<feColorMatrix in="SourceAlpha" type="matrix" values="0 0 0 0 0 0 0 0 0 0 0 0 0 0 0 0 0 0 127 0" result="hardAlpha"/>
<feOffset dx="2" dy="4"/>
<feGaussianBlur stdDeviation="2"/>
<feComposite in2="hardAlpha" operator="out"/>
<feColorMatrix type="matrix" values="0 0 0 0 0 0 0 0 0 0 0 0 0 0 0 0 0 0 0.25 0"/>
<feBlend mode="normal" in2="BackgroundImageFix" result="effect1_dropShadow_507_223"/>
<feBlend mode="normal" in="SourceGraphic" in2="effect1_dropShadow_507_223" result="shape"/>
</filter>
<filter id="filter3_d_507_223" x="255.136" y="1.65771" width="37.5423" height="37.5422" filterUnits="userSpaceOnUse" color-interpolation-filters="sRGB">
<feFlood flood-opacity="0" result="BackgroundImageFix"/>
<feColorMatrix in="SourceAlpha" type="matrix" values="0 0 0 0 0 0 0 0 0 0 0 0 0 0 0 0 0 0 127 0" result="hardAlpha"/>
<feOffset dx="2" dy="4"/>
<feGaussianBlur stdDeviation="2"/>
<feComposite in2="hardAlpha" operator="out"/>
<feColorMatrix type="matrix" values="0 0 0 0 0 0 0 0 0 0 0 0 0 0 0 0 0 0 0.25 0"/>
<feBlend mode="normal" in2="BackgroundImageFix" result="effect1_dropShadow_507_223"/>
<feBlend mode="normal" in="SourceGraphic" in2="effect1_dropShadow_507_223" result="shape"/>
</filter>
<filter id="filter4_d_507_223" x="209.346" y="1.65771" width="37.5423" height="37.5422" filterUnits="userSpaceOnUse" color-interpolation-filters="sRGB">
<feFlood flood-opacity="0" result="BackgroundImageFix"/>
<feColorMatrix in="SourceAlpha" type="matrix" values="0 0 0 0 0 0 0 0 0 0 0 0 0 0 0 0 0 0 127 0" result="hardAlpha"/>
<feOffset dx="2" dy="4"/>
<feGaussianBlur stdDeviation="2"/>
<feComposite in2="hardAlpha" operator="out"/>
<feColorMatrix type="matrix" values="0 0 0 0 0 0 0 0 0 0 0 0 0 0 0 0 0 0 0.25 0"/>
<feBlend mode="normal" in2="BackgroundImageFix" result="effect1_dropShadow_507_223"/>
<feBlend mode="normal" in="SourceGraphic" in2="effect1_dropShadow_507_223" result="shape"/>
</filter>
<clipPath id="clip0_507_223">
<rect width="36.9279" height="31.0971" fill="white" transform="translate(390.814 0.183838)"/>
</clipPath>
<clipPath id="clip1_507_223">
<rect width="36.9279" height="31.0971" fill="white" transform="translate(345.024 0.183838)"/>
</clipPath>
<clipPath id="clip2_507_223">
<rect width="36.9279" height="31.0971" fill="white" transform="translate(299.234 0.183838)"/>
</clipPath>
<clipPath id="clip3_507_223">
<rect width="36.9279" height="31.0971" fill="white" transform="translate(253.443 0.183838)"/>
</clipPath>
<clipPath id="clip4_507_223">
<rect width="36.9279" height="31.0971" fill="white" transform="translate(207.653 0.183838)"/>
</clipPath>
</defs>
</svg>
