<svg width="411" height="40" viewBox="0 0 411 40" fill="none" xmlns="http://www.w3.org/2000/svg">
<g opacity="0.85" clip-path="url(#clip0_507_179)">
<path d="M389.487 3.92457C390.171 3.9606 390.856 4.03267 391.504 4.0687C395.323 4.32092 398.926 5.29378 402.205 7.27554C405.663 9.32936 408.329 12.1398 409.843 15.9232C411.608 20.2831 410.779 24.0304 407.321 27.2372C406.96 27.5615 406.564 27.8858 406.168 28.2101C403.826 29.9757 401.124 31.0206 398.242 31.453C393.486 32.1736 388.838 31.6692 384.335 29.9036C381.596 28.8226 379.255 27.2372 377.489 24.8231C374.463 20.6794 374.103 16.2835 376.589 11.7435C377.489 10.086 378.678 8.60872 380.047 7.31157C380.299 7.05935 380.588 6.80712 380.768 6.37474C380.516 6.37474 380.263 6.33871 380.047 6.41077C378.57 6.91522 377.057 7.41967 375.616 7.99618C374.535 8.42856 374.139 8.46459 373.886 7.96015C373.67 7.4557 373.922 7.05935 374.895 6.51887C376.697 5.43791 378.714 4.89743 380.768 4.53711C381.416 4.42902 382.065 4.32092 382.713 4.24886C383.758 4.14076 384.695 3.85251 385.668 3.38409C390.207 1.18614 394.963 0.285346 399.971 0.825825C401.952 1.04202 403.862 1.61853 405.591 2.73552C405.916 2.95171 406.276 3.1679 406.456 3.49219C406.6 3.74441 406.564 4.17679 406.384 4.39299C406.276 4.53711 405.844 4.53711 405.555 4.50108C405.411 4.50108 405.303 4.35695 405.159 4.28489C403.502 3.13187 401.592 2.62742 399.647 2.44726C396.404 2.15901 393.198 2.51933 390.099 3.45616C389.919 3.49219 389.739 3.60028 389.559 3.67235C389.559 3.67235 389.559 3.74441 389.487 3.92457ZM394.891 30.0837C395.684 30.0117 397.161 29.9396 398.638 29.6514C401.88 29.0388 404.763 27.7056 407.032 25.1834C408.618 23.4178 409.374 21.364 408.978 18.9499C408.546 16.4637 407.393 14.3018 405.771 12.4281C403.286 9.50952 400.079 7.67189 396.404 6.62697C392.801 5.58204 389.126 5.58204 385.415 5.72617C385.055 5.72617 384.659 5.90633 384.335 6.08649C381.416 7.96015 379.075 10.3383 377.597 13.473C376.3 16.2475 376.264 19.058 377.597 21.7964C379.038 24.751 381.38 26.7688 384.371 28.066C387.505 29.3991 390.784 29.9757 394.891 30.0837Z" fill="#BA9465"/>
</g>
<g opacity="0.85" clip-path="url(#clip1_507_179)">
<path d="M343.696 3.92457C344.381 3.9606 345.065 4.03267 345.714 4.0687C349.533 4.32092 353.136 5.29378 356.414 7.27554C359.873 9.32936 362.539 12.1398 364.052 15.9232C365.818 20.2831 364.989 24.0304 361.53 27.2372C361.17 27.5615 360.774 27.8858 360.377 28.2101C358.036 29.9757 355.334 31.0206 352.451 31.453C347.696 32.1736 343.048 31.6692 338.544 29.9036C335.806 28.8226 333.464 27.2372 331.699 24.8231C328.673 20.6794 328.312 16.2835 330.798 11.7435C331.699 10.086 332.888 8.60872 334.257 7.31157C334.509 7.05935 334.797 6.80712 334.978 6.37474C334.725 6.37474 334.473 6.33871 334.257 6.41077C332.78 6.91522 331.267 7.41967 329.826 7.99618C328.745 8.42856 328.348 8.46459 328.096 7.96015C327.88 7.4557 328.132 7.05935 329.105 6.51887C330.906 5.43791 332.924 4.89743 334.978 4.53711C335.626 4.42902 336.275 4.32092 336.923 4.24886C337.968 4.14076 338.905 3.85251 339.877 3.38409C344.417 1.18614 349.173 0.285346 354.181 0.825825C356.162 1.04202 358.072 1.61853 359.801 2.73552C360.125 2.95171 360.486 3.1679 360.666 3.49219C360.81 3.74441 360.774 4.17679 360.594 4.39299C360.486 4.53711 360.053 4.53711 359.765 4.50108C359.621 4.50108 359.513 4.35695 359.369 4.28489C357.711 3.13187 355.802 2.62742 353.856 2.44726C350.614 2.15901 347.407 2.51933 344.309 3.45616C344.129 3.49219 343.949 3.60028 343.768 3.67235C343.768 3.67235 343.768 3.74441 343.696 3.92457ZM349.101 30.0837C349.893 30.0117 351.37 29.9396 352.848 29.6514C356.09 29.0388 358.972 27.7056 361.242 25.1834C362.827 23.4178 363.584 21.364 363.188 18.9499C362.755 16.4637 361.602 14.3018 359.981 12.4281C357.495 9.50952 354.289 7.67189 350.614 6.62697C347.011 5.58204 343.336 5.58204 339.625 5.72617C339.265 5.72617 338.869 5.90633 338.544 6.08649C335.626 7.96015 333.284 10.3383 331.807 13.473C330.51 16.2475 330.474 19.058 331.807 21.7964C333.248 24.751 335.59 26.7688 338.58 28.066C341.715 29.3991 344.993 29.9757 349.101 30.0837Z" fill="#BA9465"/>
</g>
<g filter="url(#filter0_d_507_179)">
<ellipse cx="300.698" cy="16.9152" rx="14.7712" ry="14.7711" fill="#FDF0AA"/>
</g>
<g opacity="0.85" clip-path="url(#clip2_507_179)">
<path d="M297.906 3.92457C298.591 3.9606 299.275 4.03267 299.924 4.0687C303.743 4.32092 307.345 5.29378 310.624 7.27554C314.083 9.32936 316.749 12.1398 318.262 15.9232C320.027 20.2831 319.199 24.0304 315.74 27.2372C315.38 27.5615 314.983 27.8858 314.587 28.2101C312.245 29.9757 309.543 31.0206 306.661 31.453C301.905 32.1736 297.258 31.6692 292.754 29.9036C290.016 28.8226 287.674 27.2372 285.909 24.8231C282.882 20.6794 282.522 16.2835 285.008 11.7435C285.909 10.086 287.098 8.60872 288.467 7.31157C288.719 7.05935 289.007 6.80712 289.187 6.37474C288.935 6.37474 288.683 6.33871 288.467 6.41077C286.989 6.91522 285.476 7.41967 284.035 7.99618C282.954 8.42856 282.558 8.46459 282.306 7.96015C282.09 7.4557 282.342 7.05935 283.315 6.51887C285.116 5.43791 287.134 4.89743 289.187 4.53711C289.836 4.42902 290.484 4.32092 291.133 4.24886C292.178 4.14076 293.114 3.85251 294.087 3.38409C298.627 1.18614 303.382 0.285346 308.39 0.825825C310.372 1.04202 312.281 1.61853 314.011 2.73552C314.335 2.95171 314.695 3.1679 314.875 3.49219C315.019 3.74441 314.983 4.17679 314.803 4.39299C314.695 4.53711 314.263 4.53711 313.975 4.50108C313.831 4.50108 313.722 4.35695 313.578 4.28489C311.921 3.13187 310.012 2.62742 308.066 2.44726C304.823 2.15901 301.617 2.51933 298.519 3.45616C298.338 3.49219 298.158 3.60028 297.978 3.67235C297.978 3.67235 297.978 3.74441 297.906 3.92457ZM303.31 30.0837C304.103 30.0117 305.58 29.9396 307.057 29.6514C310.3 29.0388 313.182 27.7056 315.452 25.1834C317.037 23.4178 317.794 21.364 317.397 18.9499C316.965 16.4637 315.812 14.3018 314.191 12.4281C311.705 9.50952 308.498 7.67189 304.823 6.62697C301.221 5.58204 297.546 5.58204 293.835 5.72617C293.475 5.72617 293.078 5.90633 292.754 6.08649C289.836 7.96015 287.494 10.3383 286.017 13.473C284.72 16.2475 284.684 19.058 286.017 21.7964C287.458 24.751 289.8 26.7688 292.79 28.066C295.924 29.3991 299.203 29.9757 303.31 30.0837Z" fill="#BA9465"/>
</g>
<g filter="url(#filter1_d_507_179)">
<ellipse cx="254.907" cy="16.9152" rx="14.7712" ry="14.7711" fill="#FDF0AA"/>
</g>
<g opacity="0.85" clip-path="url(#clip3_507_179)">
<path d="M252.115 3.92457C252.8 3.9606 253.484 4.03267 254.133 4.0687C257.952 4.32092 261.555 5.29378 264.833 7.27554C268.292 9.32936 270.958 12.1398 272.471 15.9232C274.237 20.2831 273.408 24.0304 269.949 27.2372C269.589 27.5615 269.193 27.8858 268.796 28.2101C266.454 29.9757 263.752 31.0206 260.87 31.453C256.114 32.1736 251.467 31.6692 246.963 29.9036C244.225 28.8226 241.883 27.2372 240.118 24.8231C237.091 20.6794 236.731 16.2835 239.217 11.7435C240.118 10.086 241.307 8.60872 242.676 7.31157C242.928 7.05935 243.216 6.80712 243.396 6.37474C243.144 6.37474 242.892 6.33871 242.676 6.41077C241.199 6.91522 239.685 7.41967 238.244 7.99618C237.163 8.42856 236.767 8.46459 236.515 7.96015C236.299 7.4557 236.551 7.05935 237.524 6.51887C239.325 5.43791 241.343 4.89743 243.396 4.53711C244.045 4.42902 244.693 4.32092 245.342 4.24886C246.387 4.14076 247.323 3.85251 248.296 3.38409C252.836 1.18614 257.591 0.285346 262.599 0.825825C264.581 1.04202 266.49 1.61853 268.22 2.73552C268.544 2.95171 268.904 3.1679 269.084 3.49219C269.229 3.74441 269.193 4.17679 269.012 4.39299C268.904 4.53711 268.472 4.53711 268.184 4.50108C268.04 4.50108 267.932 4.35695 267.787 4.28489C266.13 3.13187 264.221 2.62742 262.275 2.44726C259.033 2.15901 255.826 2.51933 252.728 3.45616C252.548 3.49219 252.367 3.60028 252.187 3.67235C252.187 3.67235 252.187 3.74441 252.115 3.92457ZM257.519 30.0837C258.312 30.0117 259.789 29.9396 261.266 29.6514C264.509 29.0388 267.391 27.7056 269.661 25.1834C271.246 23.4178 272.003 21.364 271.606 18.9499C271.174 16.4637 270.021 14.3018 268.4 12.4281C265.914 9.50952 262.707 7.67189 259.033 6.62697C255.43 5.58204 251.755 5.58204 248.044 5.72617C247.684 5.72617 247.287 5.90633 246.963 6.08649C244.045 7.96015 241.703 10.3383 240.226 13.473C238.929 16.2475 238.893 19.058 240.226 21.7964C241.667 24.751 244.009 26.7688 246.999 28.066C250.134 29.3991 253.412 29.9757 257.519 30.0837Z" fill="#BA9465"/>
</g>
<g filter="url(#filter2_d_507_179)">
<ellipse cx="209.117" cy="16.9152" rx="14.7712" ry="14.7711" fill="#FDF0AA"/>
</g>
<g opacity="0.85" clip-path="url(#clip4_507_179)">
<path d="M206.325 3.92457C207.01 3.9606 207.694 4.03267 208.343 4.0687C212.162 4.32092 215.765 5.29378 219.043 7.27554C222.502 9.32936 225.168 12.1398 226.681 15.9232C228.447 20.2831 227.618 24.0304 224.159 27.2372C223.799 27.5615 223.403 27.8858 223.006 28.2101C220.664 29.9757 217.962 31.0206 215.08 31.453C210.324 32.1736 205.677 31.6692 201.173 29.9036C198.435 28.8226 196.093 27.2372 194.328 24.8231C191.301 20.6794 190.941 16.2835 193.427 11.7435C194.328 10.086 195.517 8.60872 196.886 7.31157C197.138 7.05935 197.426 6.80712 197.606 6.37474C197.354 6.37474 197.102 6.33871 196.886 6.41077C195.409 6.91522 193.895 7.41967 192.454 7.99618C191.373 8.42856 190.977 8.46459 190.725 7.96015C190.509 7.4557 190.761 7.05935 191.734 6.51887C193.535 5.43791 195.553 4.89743 197.606 4.53711C198.255 4.42902 198.903 4.32092 199.552 4.24886C200.597 4.14076 201.533 3.85251 202.506 3.38409C207.046 1.18614 211.801 0.285346 216.809 0.825825C218.791 1.04202 220.7 1.61853 222.43 2.73552C222.754 2.95171 223.114 3.1679 223.294 3.49219C223.439 3.74441 223.403 4.17679 223.222 4.39299C223.114 4.53711 222.682 4.53711 222.394 4.50108C222.25 4.50108 222.142 4.35695 221.997 4.28489C220.34 3.13187 218.431 2.62742 216.485 2.44726C213.243 2.15901 210.036 2.51933 206.938 3.45616C206.758 3.49219 206.577 3.60028 206.397 3.67235C206.397 3.67235 206.397 3.74441 206.325 3.92457ZM211.729 30.0837C212.522 30.0117 213.999 29.9396 215.476 29.6514C218.719 29.0388 221.601 27.7056 223.871 25.1834C225.456 23.4178 226.213 21.364 225.816 18.9499C225.384 16.4637 224.231 14.3018 222.61 12.4281C220.124 9.50952 216.917 7.67189 213.243 6.62697C209.64 5.58204 205.965 5.58204 202.254 5.72617C201.894 5.72617 201.497 5.90633 201.173 6.08649C198.255 7.96015 195.913 10.3383 194.436 13.473C193.139 16.2475 193.103 19.058 194.436 21.7964C195.877 24.751 198.219 26.7688 201.209 28.066C204.344 29.3991 207.622 29.9757 211.729 30.0837Z" fill="#BA9465"/>
</g>
<line opacity="0.75" x1="0.0133208" y1="14.9207" x2="180.009" y2="16.1196" stroke="black" stroke-width="4" stroke-dasharray="2 4 6 8"/>
<defs>
<filter id="filter0_d_507_179" x="283.926" y="2.14404" width="37.5423" height="37.5422" filterUnits="userSpaceOnUse" color-interpolation-filters="sRGB">
<feFlood flood-opacity="0" result="BackgroundImageFix"/>
<feColorMatrix in="SourceAlpha" type="matrix" values="0 0 0 0 0 0 0 0 0 0 0 0 0 0 0 0 0 0 127 0" result="hardAlpha"/>
<feOffset dx="2" dy="4"/>
<feGaussianBlur stdDeviation="2"/>
<feComposite in2="hardAlpha" operator="out"/>
<feColorMatrix type="matrix" values="0 0 0 0 0 0 0 0 0 0 0 0 0 0 0 0 0 0 0.25 0"/>
<feBlend mode="normal" in2="BackgroundImageFix" result="effect1_dropShadow_507_179"/>
<feBlend mode="normal" in="SourceGraphic" in2="effect1_dropShadow_507_179" result="shape"/>
</filter>
<filter id="filter1_d_507_179" x="238.136" y="2.14404" width="37.5423" height="37.5422" filterUnits="userSpaceOnUse" color-interpolation-filters="sRGB">
<feFlood flood-opacity="0" result="BackgroundImageFix"/>
<feColorMatrix in="SourceAlpha" type="matrix" values="0 0 0 0 0 0 0 0 0 0 0 0 0 0 0 0 0 0 127 0" result="hardAlpha"/>
<feOffset dx="2" dy="4"/>
<feGaussianBlur stdDeviation="2"/>
<feComposite in2="hardAlpha" operator="out"/>
<feColorMatrix type="matrix" values="0 0 0 0 0 0 0 0 0 0 0 0 0 0 0 0 0 0 0.25 0"/>
<feBlend mode="normal" in2="BackgroundImageFix" result="effect1_dropShadow_507_179"/>
<feBlend mode="normal" in="SourceGraphic" in2="effect1_dropShadow_507_179" result="shape"/>
</filter>
<filter id="filter2_d_507_179" x="192.346" y="2.14404" width="37.5423" height="37.5422" filterUnits="userSpaceOnUse" color-interpolation-filters="sRGB">
<feFlood flood-opacity="0" result="BackgroundImageFix"/>
<feColorMatrix in="SourceAlpha" type="matrix" values="0 0 0 0 0 0 0 0 0 0 0 0 0 0 0 0 0 0 127 0" result="hardAlpha"/>
<feOffset dx="2" dy="4"/>
<feGaussianBlur stdDeviation="2"/>
<feComposite in2="hardAlpha" operator="out"/>
<feColorMatrix type="matrix" values="0 0 0 0 0 0 0 0 0 0 0 0 0 0 0 0 0 0 0.25 0"/>
<feBlend mode="normal" in2="BackgroundImageFix" result="effect1_dropShadow_507_179"/>
<feBlend mode="normal" in="SourceGraphic" in2="effect1_dropShadow_507_179" result="shape"/>
</filter>
<clipPath id="clip0_507_179">
<rect width="36.9279" height="31.0971" fill="white" transform="translate(373.814 0.672852)"/>
</clipPath>
<clipPath id="clip1_507_179">
<rect width="36.9279" height="31.0971" fill="white" transform="translate(328.024 0.672852)"/>
</clipPath>
<clipPath id="clip2_507_179">
<rect width="36.9279" height="31.0971" fill="white" transform="translate(282.234 0.672852)"/>
</clipPath>
<clipPath id="clip3_507_179">
<rect width="36.9279" height="31.0971" fill="white" transform="translate(236.443 0.672852)"/>
</clipPath>
<clipPath id="clip4_507_179">
<rect width="36.9279" height="31.0971" fill="white" transform="translate(190.653 0.672852)"/>
</clipPath>
</defs>
</svg>
