<svg width="405" height="40" viewBox="0 0 405 40" fill="none" xmlns="http://www.w3.org/2000/svg">
<g opacity="0.85" clip-path="url(#clip0_507_289)">
<path d="M383.487 4.20289C384.171 4.23892 384.856 4.31099 385.504 4.34702C389.323 4.59924 392.926 5.5721 396.205 7.55386C399.663 9.60768 402.329 12.4182 403.843 16.2015C405.608 20.5614 404.779 24.3087 401.321 27.5155C400.96 27.8398 400.564 28.1641 400.168 28.4884C397.826 30.254 395.124 31.2989 392.241 31.7313C387.486 32.4519 382.838 31.9475 378.335 30.1819C375.596 29.101 373.255 27.5155 371.489 25.1014C368.463 20.9577 368.102 16.5618 370.588 12.0218C371.489 10.3644 372.678 8.88704 374.047 7.58989C374.299 7.33767 374.588 7.08544 374.768 6.65306C374.516 6.65306 374.263 6.61703 374.047 6.68909C372.57 7.19354 371.057 7.69799 369.616 8.2745C368.535 8.70688 368.139 8.74291 367.886 8.23847C367.67 7.73402 367.922 7.33767 368.895 6.79719C370.697 5.71623 372.714 5.17575 374.768 4.81543C375.416 4.70734 376.065 4.59924 376.713 4.52718C377.758 4.41908 378.695 4.13083 379.668 3.66241C384.207 1.46446 388.963 0.563666 393.971 1.10415C395.952 1.32034 397.862 1.89685 399.591 3.01384C399.915 3.23003 400.276 3.44622 400.456 3.77051C400.6 4.02273 400.564 4.45511 400.384 4.67131C400.276 4.81543 399.843 4.81543 399.555 4.7794C399.411 4.7794 399.303 4.63527 399.159 4.56321C397.502 3.41019 395.592 2.90574 393.647 2.72558C390.404 2.43733 387.197 2.79765 384.099 3.73448C383.919 3.77051 383.739 3.8786 383.559 3.95067C383.559 3.95067 383.559 4.02273 383.487 4.20289ZM388.891 30.3621C389.683 30.29 391.161 30.2179 392.638 29.9297C395.88 29.3171 398.763 27.984 401.032 25.4617C402.618 23.6962 403.374 21.6423 402.978 19.2282C402.546 16.742 401.393 14.5801 399.771 12.7064C397.285 9.78784 394.079 7.95021 390.404 6.90529C386.801 5.86036 383.126 5.86036 379.415 6.00449C379.055 6.00449 378.659 6.18465 378.335 6.36481C375.416 8.23847 373.074 10.6166 371.597 13.7514C370.3 16.5258 370.264 19.3363 371.597 22.0747C373.038 25.0293 375.38 27.0471 378.371 28.3443C381.505 29.6775 384.784 30.254 388.891 30.3621Z" fill="#BA9465"/>
</g>
<g filter="url(#filter0_d_507_289)">
<ellipse cx="340.488" cy="17.1967" rx="14.7712" ry="14.7711" fill="#FDF0AA"/>
</g>
<g opacity="0.85" clip-path="url(#clip1_507_289)">
<path d="M337.696 4.20289C338.381 4.23892 339.065 4.31099 339.714 4.34702C343.533 4.59924 347.136 5.5721 350.414 7.55386C353.873 9.60768 356.539 12.4182 358.052 16.2015C359.818 20.5614 358.989 24.3087 355.53 27.5155C355.17 27.8398 354.774 28.1641 354.377 28.4884C352.036 30.254 349.334 31.2989 346.451 31.7313C341.696 32.4519 337.048 31.9475 332.544 30.1819C329.806 29.101 327.464 27.5155 325.699 25.1014C322.673 20.9577 322.312 16.5618 324.798 12.0218C325.699 10.3644 326.888 8.88704 328.257 7.58989C328.509 7.33767 328.797 7.08544 328.978 6.65306C328.725 6.65306 328.473 6.61703 328.257 6.68909C326.78 7.19354 325.267 7.69799 323.826 8.2745C322.745 8.70688 322.348 8.74291 322.096 8.23847C321.88 7.73402 322.132 7.33767 323.105 6.79719C324.906 5.71623 326.924 5.17575 328.978 4.81543C329.626 4.70734 330.275 4.59924 330.923 4.52718C331.968 4.41908 332.905 4.13083 333.877 3.66241C338.417 1.46446 343.173 0.563666 348.181 1.10415C350.162 1.32034 352.072 1.89685 353.801 3.01384C354.125 3.23003 354.486 3.44622 354.666 3.77051C354.81 4.02273 354.774 4.45511 354.594 4.67131C354.486 4.81543 354.053 4.81543 353.765 4.7794C353.621 4.7794 353.513 4.63527 353.369 4.56321C351.711 3.41019 349.802 2.90574 347.856 2.72558C344.614 2.43733 341.407 2.79765 338.309 3.73448C338.129 3.77051 337.949 3.8786 337.768 3.95067C337.768 3.95067 337.768 4.02273 337.696 4.20289ZM343.101 30.3621C343.893 30.29 345.37 30.2179 346.848 29.9297C350.09 29.3171 352.972 27.984 355.242 25.4617C356.827 23.6962 357.584 21.6423 357.188 19.2282C356.755 16.742 355.602 14.5801 353.981 12.7064C351.495 9.78784 348.289 7.95021 344.614 6.90529C341.011 5.86036 337.336 5.86036 333.625 6.00449C333.265 6.00449 332.869 6.18465 332.544 6.36481C329.626 8.23847 327.284 10.6166 325.807 13.7514C324.51 16.5258 324.474 19.3363 325.807 22.0747C327.248 25.0293 329.59 27.0471 332.58 28.3443C335.715 29.6775 338.993 30.254 343.101 30.3621Z" fill="#BA9465"/>
</g>
<g filter="url(#filter1_d_507_289)">
<ellipse cx="294.697" cy="17.1967" rx="14.7712" ry="14.7711" fill="#FDF0AA"/>
</g>
<g opacity="0.85" clip-path="url(#clip2_507_289)">
<path d="M291.906 4.20289C292.59 4.23892 293.275 4.31099 293.924 4.34702C297.743 4.59924 301.345 5.5721 304.624 7.55386C308.083 9.60768 310.749 12.4182 312.262 16.2015C314.027 20.5614 313.199 24.3087 309.74 27.5155C309.38 27.8398 308.983 28.1641 308.587 28.4884C306.245 30.254 303.543 31.2989 300.661 31.7313C295.905 32.4519 291.257 31.9475 286.754 30.1819C284.016 29.101 281.674 27.5155 279.909 25.1014C276.882 20.9577 276.522 16.5618 279.008 12.0218C279.909 10.3644 281.097 8.88704 282.467 7.58989C282.719 7.33767 283.007 7.08544 283.187 6.65306C282.935 6.65306 282.683 6.61703 282.467 6.68909C280.989 7.19354 279.476 7.69799 278.035 8.2745C276.954 8.70688 276.558 8.74291 276.306 8.23847C276.09 7.73402 276.342 7.33767 277.314 6.79719C279.116 5.71623 281.133 5.17575 283.187 4.81543C283.836 4.70734 284.484 4.59924 285.133 4.52718C286.177 4.41908 287.114 4.13083 288.087 3.66241C292.626 1.46446 297.382 0.563666 302.39 1.10415C304.372 1.32034 306.281 1.89685 308.011 3.01384C308.335 3.23003 308.695 3.44622 308.875 3.77051C309.019 4.02273 308.983 4.45511 308.803 4.67131C308.695 4.81543 308.263 4.81543 307.975 4.7794C307.83 4.7794 307.722 4.63527 307.578 4.56321C305.921 3.41019 304.011 2.90574 302.066 2.72558C298.823 2.43733 295.617 2.79765 292.518 3.73448C292.338 3.77051 292.158 3.8786 291.978 3.95067C291.978 3.95067 291.978 4.02273 291.906 4.20289ZM297.31 30.3621C298.103 30.29 299.58 30.2179 301.057 29.9297C304.3 29.3171 307.182 27.984 309.452 25.4617C311.037 23.6962 311.794 21.6423 311.397 19.2282C310.965 16.742 309.812 14.5801 308.191 12.7064C305.705 9.78784 302.498 7.95021 298.823 6.90529C295.221 5.86036 291.546 5.86036 287.835 6.00449C287.474 6.00449 287.078 6.18465 286.754 6.36481C283.836 8.23847 281.494 10.6166 280.017 13.7514C278.72 16.5258 278.684 19.3363 280.017 22.0747C281.458 25.0293 283.8 27.0471 286.79 28.3443C289.924 29.6775 293.203 30.254 297.31 30.3621Z" fill="#BA9465"/>
</g>
<g filter="url(#filter2_d_507_289)">
<ellipse cx="248.907" cy="17.1967" rx="14.7712" ry="14.7711" fill="#FDF0AA"/>
</g>
<g opacity="0.85" clip-path="url(#clip3_507_289)">
<path d="M246.115 4.20289C246.8 4.23892 247.484 4.31099 248.133 4.34702C251.952 4.59924 255.554 5.5721 258.833 7.55386C262.292 9.60768 264.958 12.4182 266.471 16.2015C268.236 20.5614 267.408 24.3087 263.949 27.5155C263.589 27.8398 263.192 28.1641 262.796 28.4884C260.454 30.254 257.752 31.2989 254.87 31.7313C250.114 32.4519 245.466 31.9475 240.963 30.1819C238.225 29.101 235.883 27.5155 234.118 25.1014C231.091 20.9577 230.731 16.5618 233.217 12.0218C234.118 10.3644 235.306 8.88704 236.676 7.58989C236.928 7.33767 237.216 7.08544 237.396 6.65306C237.144 6.65306 236.892 6.61703 236.676 6.68909C235.198 7.19354 233.685 7.69799 232.244 8.2745C231.163 8.70688 230.767 8.74291 230.515 8.23847C230.299 7.73402 230.551 7.33767 231.524 6.79719C233.325 5.71623 235.343 5.17575 237.396 4.81543C238.045 4.70734 238.693 4.59924 239.342 4.52718C240.386 4.41908 241.323 4.13083 242.296 3.66241C246.836 1.46446 251.591 0.563666 256.599 1.10415C258.581 1.32034 260.49 1.89685 262.22 3.01384C262.544 3.23003 262.904 3.44622 263.084 3.77051C263.228 4.02273 263.192 4.45511 263.012 4.67131C262.904 4.81543 262.472 4.81543 262.184 4.7794C262.039 4.7794 261.931 4.63527 261.787 4.56321C260.13 3.41019 258.22 2.90574 256.275 2.72558C253.032 2.43733 249.826 2.79765 246.727 3.73448C246.547 3.77051 246.367 3.8786 246.187 3.95067C246.187 3.95067 246.187 4.02273 246.115 4.20289ZM251.519 30.3621C252.312 30.29 253.789 30.2179 255.266 29.9297C258.509 29.3171 261.391 27.984 263.661 25.4617C265.246 23.6962 266.003 21.6423 265.606 19.2282C265.174 16.742 264.021 14.5801 262.4 12.7064C259.914 9.78784 256.707 7.95021 253.032 6.90529C249.43 5.86036 245.755 5.86036 242.044 6.00449C241.684 6.00449 241.287 6.18465 240.963 6.36481C238.045 8.23847 235.703 10.6166 234.226 13.7514C232.929 16.5258 232.893 19.3363 234.226 22.0747C235.667 25.0293 238.009 27.0471 240.999 28.3443C244.133 29.6775 247.412 30.254 251.519 30.3621Z" fill="#BA9465"/>
</g>
<g filter="url(#filter3_d_507_289)">
<ellipse cx="203.117" cy="17.1967" rx="14.7712" ry="14.7711" fill="#FDF0AA"/>
</g>
<g opacity="0.85" clip-path="url(#clip4_507_289)">
<path d="M200.325 4.20289C201.01 4.23892 201.694 4.31099 202.343 4.34702C206.162 4.59924 209.765 5.5721 213.043 7.55386C216.502 9.60768 219.168 12.4182 220.681 16.2015C222.446 20.5614 221.618 24.3087 218.159 27.5155C217.799 27.8398 217.403 28.1641 217.006 28.4884C214.664 30.254 211.962 31.2989 209.08 31.7313C204.324 32.4519 199.677 31.9475 195.173 30.1819C192.435 29.101 190.093 27.5155 188.328 25.1014C185.301 20.9577 184.941 16.5618 187.427 12.0218C188.328 10.3644 189.517 8.88704 190.886 7.58989C191.138 7.33767 191.426 7.08544 191.606 6.65306C191.354 6.65306 191.102 6.61703 190.886 6.68909C189.409 7.19354 187.895 7.69799 186.454 8.2745C185.373 8.70688 184.977 8.74291 184.725 8.23847C184.509 7.73402 184.761 7.33767 185.734 6.79719C187.535 5.71623 189.553 5.17575 191.606 4.81543C192.255 4.70734 192.903 4.59924 193.552 4.52718C194.597 4.41908 195.533 4.13083 196.506 3.66241C201.046 1.46446 205.801 0.563666 210.809 1.10415C212.791 1.32034 214.7 1.89685 216.43 3.01384C216.754 3.23003 217.114 3.44622 217.294 3.77051C217.439 4.02273 217.403 4.45511 217.222 4.67131C217.114 4.81543 216.682 4.81543 216.394 4.7794C216.25 4.7794 216.142 4.63527 215.997 4.56321C214.34 3.41019 212.431 2.90574 210.485 2.72558C207.243 2.43733 204.036 2.79765 200.938 3.73448C200.757 3.77051 200.577 3.8786 200.397 3.95067C200.397 3.95067 200.397 4.02273 200.325 4.20289ZM205.729 30.3621C206.522 30.29 207.999 30.2179 209.476 29.9297C212.719 29.3171 215.601 27.984 217.871 25.4617C219.456 23.6962 220.213 21.6423 219.816 19.2282C219.384 16.742 218.231 14.5801 216.61 12.7064C214.124 9.78784 210.917 7.95021 207.243 6.90529C203.64 5.86036 199.965 5.86036 196.254 6.00449C195.894 6.00449 195.497 6.18465 195.173 6.36481C192.255 8.23847 189.913 10.6166 188.436 13.7514C187.139 16.5258 187.103 19.3363 188.436 22.0747C189.877 25.0293 192.219 27.0471 195.209 28.3443C198.344 29.6775 201.622 30.254 205.729 30.3621Z" fill="#BA9465"/>
</g>
<line opacity="0.75" x1="0.0133208" y1="18.1531" x2="180.009" y2="19.352" stroke="black" stroke-width="4" stroke-dasharray="2 4 6 8"/>
<defs>
<filter id="filter0_d_507_289" x="323.717" y="2.42554" width="37.5423" height="37.5422" filterUnits="userSpaceOnUse" color-interpolation-filters="sRGB">
<feFlood flood-opacity="0" result="BackgroundImageFix"/>
<feColorMatrix in="SourceAlpha" type="matrix" values="0 0 0 0 0 0 0 0 0 0 0 0 0 0 0 0 0 0 127 0" result="hardAlpha"/>
<feOffset dx="2" dy="4"/>
<feGaussianBlur stdDeviation="2"/>
<feComposite in2="hardAlpha" operator="out"/>
<feColorMatrix type="matrix" values="0 0 0 0 0 0 0 0 0 0 0 0 0 0 0 0 0 0 0.25 0"/>
<feBlend mode="normal" in2="BackgroundImageFix" result="effect1_dropShadow_507_289"/>
<feBlend mode="normal" in="SourceGraphic" in2="effect1_dropShadow_507_289" result="shape"/>
</filter>
<filter id="filter1_d_507_289" x="277.926" y="2.42554" width="37.5423" height="37.5422" filterUnits="userSpaceOnUse" color-interpolation-filters="sRGB">
<feFlood flood-opacity="0" result="BackgroundImageFix"/>
<feColorMatrix in="SourceAlpha" type="matrix" values="0 0 0 0 0 0 0 0 0 0 0 0 0 0 0 0 0 0 127 0" result="hardAlpha"/>
<feOffset dx="2" dy="4"/>
<feGaussianBlur stdDeviation="2"/>
<feComposite in2="hardAlpha" operator="out"/>
<feColorMatrix type="matrix" values="0 0 0 0 0 0 0 0 0 0 0 0 0 0 0 0 0 0 0.25 0"/>
<feBlend mode="normal" in2="BackgroundImageFix" result="effect1_dropShadow_507_289"/>
<feBlend mode="normal" in="SourceGraphic" in2="effect1_dropShadow_507_289" result="shape"/>
</filter>
<filter id="filter2_d_507_289" x="232.136" y="2.42554" width="37.5423" height="37.5422" filterUnits="userSpaceOnUse" color-interpolation-filters="sRGB">
<feFlood flood-opacity="0" result="BackgroundImageFix"/>
<feColorMatrix in="SourceAlpha" type="matrix" values="0 0 0 0 0 0 0 0 0 0 0 0 0 0 0 0 0 0 127 0" result="hardAlpha"/>
<feOffset dx="2" dy="4"/>
<feGaussianBlur stdDeviation="2"/>
<feComposite in2="hardAlpha" operator="out"/>
<feColorMatrix type="matrix" values="0 0 0 0 0 0 0 0 0 0 0 0 0 0 0 0 0 0 0.25 0"/>
<feBlend mode="normal" in2="BackgroundImageFix" result="effect1_dropShadow_507_289"/>
<feBlend mode="normal" in="SourceGraphic" in2="effect1_dropShadow_507_289" result="shape"/>
</filter>
<filter id="filter3_d_507_289" x="186.346" y="2.42554" width="37.5423" height="37.5422" filterUnits="userSpaceOnUse" color-interpolation-filters="sRGB">
<feFlood flood-opacity="0" result="BackgroundImageFix"/>
<feColorMatrix in="SourceAlpha" type="matrix" values="0 0 0 0 0 0 0 0 0 0 0 0 0 0 0 0 0 0 127 0" result="hardAlpha"/>
<feOffset dx="2" dy="4"/>
<feGaussianBlur stdDeviation="2"/>
<feComposite in2="hardAlpha" operator="out"/>
<feColorMatrix type="matrix" values="0 0 0 0 0 0 0 0 0 0 0 0 0 0 0 0 0 0 0.25 0"/>
<feBlend mode="normal" in2="BackgroundImageFix" result="effect1_dropShadow_507_289"/>
<feBlend mode="normal" in="SourceGraphic" in2="effect1_dropShadow_507_289" result="shape"/>
</filter>
<clipPath id="clip0_507_289">
<rect width="36.9279" height="31.0971" fill="white" transform="translate(367.814 0.951172)"/>
</clipPath>
<clipPath id="clip1_507_289">
<rect width="36.9279" height="31.0971" fill="white" transform="translate(322.024 0.951172)"/>
</clipPath>
<clipPath id="clip2_507_289">
<rect width="36.9279" height="31.0971" fill="white" transform="translate(276.234 0.951172)"/>
</clipPath>
<clipPath id="clip3_507_289">
<rect width="36.9279" height="31.0971" fill="white" transform="translate(230.443 0.951172)"/>
</clipPath>
<clipPath id="clip4_507_289">
<rect width="36.9279" height="31.0971" fill="white" transform="translate(184.653 0.951172)"/>
</clipPath>
</defs>
</svg>
