<svg width="328" height="40" viewBox="0 0 328 40" fill="none" xmlns="http://www.w3.org/2000/svg">
<g opacity="0.85" clip-path="url(#clip0_507_311)">
<path d="M306.486 3.46119C307.171 3.49722 307.855 3.56929 308.504 3.60532C312.323 3.85754 315.926 4.8304 319.204 6.81216C322.663 8.86598 325.329 11.6765 326.842 15.4598C328.608 19.8197 327.779 23.567 324.32 26.7738C323.96 27.0981 323.564 27.4224 323.167 27.7467C320.826 29.5123 318.124 30.5572 315.241 30.9896C310.486 31.7102 305.838 31.2058 301.334 29.4402C298.596 28.3593 296.254 26.7738 294.489 24.3597C291.463 20.216 291.102 15.8201 293.588 11.2801C294.489 9.62265 295.678 8.14534 297.047 6.84819C297.299 6.59597 297.587 6.34375 297.768 5.91136C297.515 5.91136 297.263 5.87533 297.047 5.94739C295.57 6.45184 294.057 6.95629 292.615 7.5328C291.535 7.96518 291.138 8.00121 290.886 7.49677C290.67 6.99232 290.922 6.59597 291.895 6.05549C293.696 4.97453 295.714 4.43405 297.768 4.07373C298.416 3.96564 299.065 3.85754 299.713 3.78548C300.758 3.67738 301.695 3.38913 302.667 2.92071C307.207 0.722765 311.963 -0.178033 316.971 0.362446C318.952 0.578638 320.862 1.15515 322.591 2.27214C322.915 2.48833 323.276 2.70452 323.456 3.02881C323.6 3.28103 323.564 3.71342 323.384 3.92961C323.276 4.07373 322.843 4.07373 322.555 4.0377C322.411 4.0377 322.303 3.89357 322.159 3.82151C320.501 2.66849 318.592 2.16404 316.646 1.98388C313.404 1.69563 310.197 2.05595 307.099 2.99278C306.919 3.02881 306.739 3.1369 306.558 3.20897C306.558 3.20897 306.558 3.28103 306.486 3.46119ZM311.891 29.6204C312.683 29.5483 314.16 29.4762 315.638 29.188C318.88 28.5754 321.762 27.2423 324.032 24.72C325.617 22.9545 326.374 20.9006 325.978 18.4865C325.545 16.0003 324.392 13.8384 322.771 11.9647C320.285 9.04614 317.079 7.20851 313.404 6.16359C309.801 5.11866 306.126 5.11866 302.415 5.26279C302.055 5.26279 301.659 5.44295 301.334 5.62311C298.416 7.49677 296.074 9.87488 294.597 13.0097C293.3 15.7841 293.264 18.5946 294.597 21.333C296.038 24.2876 298.38 26.3054 301.37 27.6026C304.505 28.9358 307.783 29.5123 311.891 29.6204Z" fill="#BA9465"/>
</g>
<g filter="url(#filter0_d_507_311)">
<path d="M263.488 31.2274C259.571 31.2274 255.813 29.6711 253.043 26.901C250.273 24.1309 248.717 20.3738 248.717 16.4562C248.717 12.5387 250.273 8.78155 253.043 6.01143C255.813 3.2413 259.571 1.68506 263.488 1.68506V16.4562L263.488 31.2274Z" fill="#FDF0AA"/>
</g>
<g opacity="0.85" clip-path="url(#clip1_507_311)">
<path d="M260.697 3.46119C261.381 3.49722 262.066 3.56929 262.714 3.60532C266.533 3.85754 270.136 4.8304 273.415 6.81216C276.873 8.86598 279.539 11.6765 281.052 15.4598C282.818 19.8197 281.989 23.567 278.531 26.7738C278.17 27.0981 277.774 27.4224 277.378 27.7467C275.036 29.5123 272.334 30.5572 269.451 30.9896C264.696 31.7102 260.048 31.2058 255.544 29.4402C252.806 28.3593 250.464 26.7738 248.699 24.3597C245.673 20.216 245.312 15.8201 247.798 11.2801C248.699 9.62265 249.888 8.14534 251.257 6.84819C251.509 6.59597 251.798 6.34375 251.978 5.91136C251.725 5.91136 251.473 5.87533 251.257 5.94739C249.78 6.45184 248.267 6.95629 246.826 7.5328C245.745 7.96518 245.348 8.00121 245.096 7.49677C244.88 6.99232 245.132 6.59597 246.105 6.05549C247.906 4.97453 249.924 4.43405 251.978 4.07373C252.626 3.96564 253.275 3.85754 253.923 3.78548C254.968 3.67738 255.905 3.38913 256.878 2.92071C261.417 0.722765 266.173 -0.178033 271.181 0.362446C273.162 0.578638 275.072 1.15515 276.801 2.27214C277.125 2.48833 277.486 2.70452 277.666 3.02881C277.81 3.28103 277.774 3.71342 277.594 3.92961C277.486 4.07373 277.053 4.07373 276.765 4.0377C276.621 4.0377 276.513 3.89357 276.369 3.82151C274.712 2.66849 272.802 2.16404 270.856 1.98388C267.614 1.69563 264.407 2.05595 261.309 2.99278C261.129 3.02881 260.949 3.1369 260.769 3.20897C260.769 3.20897 260.769 3.28103 260.697 3.46119ZM266.101 29.6204C266.893 29.5483 268.371 29.4762 269.848 29.188C273.09 28.5754 275.973 27.2423 278.242 24.72C279.828 22.9545 280.584 20.9006 280.188 18.4865C279.755 16.0003 278.603 13.8384 276.981 11.9647C274.495 9.04614 271.289 7.20851 267.614 6.16359C264.011 5.11866 260.336 5.11866 256.625 5.26279C256.265 5.26279 255.869 5.44295 255.544 5.62311C252.626 7.49677 250.284 9.87488 248.807 13.0097C247.51 15.7841 247.474 18.5946 248.807 21.333C250.248 24.2876 252.59 26.3054 255.581 27.6026C258.715 28.9358 261.994 29.5123 266.101 29.6204Z" fill="#BA9465"/>
</g>
<g filter="url(#filter1_d_507_311)">
<ellipse cx="217.697" cy="16.4562" rx="14.7712" ry="14.7711" fill="#FDF0AA"/>
</g>
<g opacity="0.85" clip-path="url(#clip2_507_311)">
<path d="M214.906 3.46119C215.59 3.49722 216.275 3.56929 216.924 3.60532C220.743 3.85754 224.345 4.8304 227.624 6.81216C231.083 8.86598 233.749 11.6765 235.262 15.4598C237.027 19.8197 236.199 23.567 232.74 26.7738C232.38 27.0981 231.983 27.4224 231.587 27.7467C229.245 29.5123 226.543 30.5572 223.661 30.9896C218.905 31.7102 214.257 31.2058 209.754 29.4402C207.016 28.3593 204.674 26.7738 202.909 24.3597C199.882 20.216 199.522 15.8201 202.008 11.2801C202.909 9.62265 204.097 8.14534 205.467 6.84819C205.719 6.59597 206.007 6.34375 206.187 5.91136C205.935 5.91136 205.683 5.87533 205.467 5.94739C203.989 6.45184 202.476 6.95629 201.035 7.5328C199.954 7.96518 199.558 8.00121 199.306 7.49677C199.09 6.99232 199.342 6.59597 200.314 6.05549C202.116 4.97453 204.133 4.43405 206.187 4.07373C206.836 3.96564 207.484 3.85754 208.133 3.78548C209.177 3.67738 210.114 3.38913 211.087 2.92071C215.626 0.722765 220.382 -0.178033 225.39 0.362446C227.372 0.578638 229.281 1.15515 231.011 2.27214C231.335 2.48833 231.695 2.70452 231.875 3.02881C232.019 3.28103 231.983 3.71342 231.803 3.92961C231.695 4.07373 231.263 4.07373 230.975 4.0377C230.83 4.0377 230.722 3.89357 230.578 3.82151C228.921 2.66849 227.011 2.16404 225.066 1.98388C221.823 1.69563 218.617 2.05595 215.518 2.99278C215.338 3.02881 215.158 3.1369 214.978 3.20897C214.978 3.20897 214.978 3.28103 214.906 3.46119ZM220.31 29.6204C221.103 29.5483 222.58 29.4762 224.057 29.188C227.3 28.5754 230.182 27.2423 232.452 24.72C234.037 22.9545 234.794 20.9006 234.397 18.4865C233.965 16.0003 232.812 13.8384 231.191 11.9647C228.705 9.04614 225.498 7.20851 221.823 6.16359C218.221 5.11866 214.546 5.11866 210.835 5.26279C210.474 5.26279 210.078 5.44295 209.754 5.62311C206.836 7.49677 204.494 9.87488 203.017 13.0097C201.72 15.7841 201.684 18.5946 203.017 21.333C204.458 24.2876 206.8 26.3054 209.79 27.6026C212.924 28.9358 216.203 29.5123 220.31 29.6204Z" fill="#BA9465"/>
</g>
<g filter="url(#filter2_d_507_311)">
<ellipse cx="171.907" cy="16.4562" rx="14.7712" ry="14.7711" fill="#FDF0AA"/>
</g>
<g opacity="0.85" clip-path="url(#clip3_507_311)">
<path d="M169.115 3.46119C169.8 3.49722 170.484 3.56929 171.133 3.60532C174.952 3.85754 178.554 4.8304 181.833 6.81216C185.292 8.86598 187.958 11.6765 189.471 15.4598C191.236 19.8197 190.408 23.567 186.949 26.7738C186.589 27.0981 186.192 27.4224 185.796 27.7467C183.454 29.5123 180.752 30.5572 177.87 30.9896C173.114 31.7102 168.467 31.2058 163.963 29.4402C161.225 28.3593 158.883 26.7738 157.118 24.3597C154.091 20.216 153.731 15.8201 156.217 11.2801C157.118 9.62265 158.307 8.14534 159.676 6.84819C159.928 6.59597 160.216 6.34375 160.396 5.91136C160.144 5.91136 159.892 5.87533 159.676 5.94739C158.198 6.45184 156.685 6.95629 155.244 7.5328C154.163 7.96518 153.767 8.00121 153.515 7.49677C153.299 6.99232 153.551 6.59597 154.524 6.05549C156.325 4.97453 158.343 4.43405 160.396 4.07373C161.045 3.96564 161.693 3.85754 162.342 3.78548C163.387 3.67738 164.323 3.38913 165.296 2.92071C169.836 0.722765 174.591 -0.178033 179.599 0.362446C181.581 0.578638 183.49 1.15515 185.22 2.27214C185.544 2.48833 185.904 2.70452 186.084 3.02881C186.228 3.28103 186.192 3.71342 186.012 3.92961C185.904 4.07373 185.472 4.07373 185.184 4.0377C185.04 4.0377 184.931 3.89357 184.787 3.82151C183.13 2.66849 181.221 2.16404 179.275 1.98388C176.032 1.69563 172.826 2.05595 169.728 2.99278C169.547 3.02881 169.367 3.1369 169.187 3.20897C169.187 3.20897 169.187 3.28103 169.115 3.46119ZM174.519 29.6204C175.312 29.5483 176.789 29.4762 178.266 29.188C181.509 28.5754 184.391 27.2423 186.661 24.72C188.246 22.9545 189.003 20.9006 188.606 18.4865C188.174 16.0003 187.021 13.8384 185.4 11.9647C182.914 9.04614 179.707 7.20851 176.032 6.16359C172.43 5.11866 168.755 5.11866 165.044 5.26279C164.684 5.26279 164.287 5.44295 163.963 5.62311C161.045 7.49677 158.703 9.87488 157.226 13.0097C155.929 15.7841 155.893 18.5946 157.226 21.333C158.667 24.2876 161.009 26.3054 163.999 27.6026C167.133 28.9358 170.412 29.5123 174.519 29.6204Z" fill="#BA9465"/>
</g>
<g filter="url(#filter3_d_507_311)">
<ellipse cx="126.117" cy="16.4562" rx="14.7712" ry="14.7711" fill="#FDF0AA"/>
</g>
<g opacity="0.85" clip-path="url(#clip4_507_311)">
<path d="M123.325 3.46119C124.01 3.49722 124.695 3.56929 125.343 3.60532C129.162 3.85754 132.765 4.8304 136.043 6.81216C139.502 8.86598 142.168 11.6765 143.681 15.4598C145.447 19.8197 144.618 23.567 141.159 26.7738C140.799 27.0981 140.403 27.4224 140.007 27.7467C137.665 29.5123 134.963 30.5572 132.08 30.9896C127.325 31.7102 122.677 31.2058 118.173 29.4402C115.435 28.3593 113.093 26.7738 111.328 24.3597C108.302 20.216 107.941 15.8201 110.427 11.2801C111.328 9.62265 112.517 8.14534 113.886 6.84819C114.138 6.59597 114.426 6.34375 114.607 5.91136C114.354 5.91136 114.102 5.87533 113.886 5.94739C112.409 6.45184 110.896 6.95629 109.455 7.5328C108.374 7.96518 107.977 8.00121 107.725 7.49677C107.509 6.99232 107.761 6.59597 108.734 6.05549C110.535 4.97453 112.553 4.43405 114.607 4.07373C115.255 3.96564 115.904 3.85754 116.552 3.78548C117.597 3.67738 118.534 3.38913 119.506 2.92071C124.046 0.722765 128.802 -0.178033 133.81 0.362446C135.791 0.578638 137.701 1.15515 139.43 2.27214C139.754 2.48833 140.115 2.70452 140.295 3.02881C140.439 3.28103 140.403 3.71342 140.223 3.92961C140.115 4.07373 139.682 4.07373 139.394 4.0377C139.25 4.0377 139.142 3.89357 138.998 3.82151C137.34 2.66849 135.431 2.16404 133.485 1.98388C130.243 1.69563 127.036 2.05595 123.938 2.99278C123.758 3.02881 123.578 3.1369 123.397 3.20897C123.397 3.20897 123.397 3.28103 123.325 3.46119ZM128.73 29.6204C129.522 29.5483 130.999 29.4762 132.477 29.188C135.719 28.5754 138.601 27.2423 140.871 24.72C142.456 22.9545 143.213 20.9006 142.817 18.4865C142.384 16.0003 141.231 13.8384 139.61 11.9647C137.124 9.04614 133.918 7.20851 130.243 6.16359C126.64 5.11866 122.965 5.11866 119.254 5.26279C118.894 5.26279 118.498 5.44295 118.173 5.62311C115.255 7.49677 112.913 9.87488 111.436 13.0097C110.139 15.7841 110.103 18.5946 111.436 21.333C112.877 24.2876 115.219 26.3054 118.209 27.6026C121.344 28.9358 124.622 29.5123 128.73 29.6204Z" fill="#BA9465"/>
</g>
<line opacity="0.75" x1="0.0133208" y1="18.8873" x2="100.011" y2="19.5533" stroke="black" stroke-width="4" stroke-dasharray="2 4 6 8"/>
<defs>
<filter id="filter0_d_507_311" x="246.717" y="1.68506" width="22.7712" height="37.5422" filterUnits="userSpaceOnUse" color-interpolation-filters="sRGB">
<feFlood flood-opacity="0" result="BackgroundImageFix"/>
<feColorMatrix in="SourceAlpha" type="matrix" values="0 0 0 0 0 0 0 0 0 0 0 0 0 0 0 0 0 0 127 0" result="hardAlpha"/>
<feOffset dx="2" dy="4"/>
<feGaussianBlur stdDeviation="2"/>
<feComposite in2="hardAlpha" operator="out"/>
<feColorMatrix type="matrix" values="0 0 0 0 0 0 0 0 0 0 0 0 0 0 0 0 0 0 0.25 0"/>
<feBlend mode="normal" in2="BackgroundImageFix" result="effect1_dropShadow_507_311"/>
<feBlend mode="normal" in="SourceGraphic" in2="effect1_dropShadow_507_311" result="shape"/>
</filter>
<filter id="filter1_d_507_311" x="200.926" y="1.68506" width="37.5423" height="37.5422" filterUnits="userSpaceOnUse" color-interpolation-filters="sRGB">
<feFlood flood-opacity="0" result="BackgroundImageFix"/>
<feColorMatrix in="SourceAlpha" type="matrix" values="0 0 0 0 0 0 0 0 0 0 0 0 0 0 0 0 0 0 127 0" result="hardAlpha"/>
<feOffset dx="2" dy="4"/>
<feGaussianBlur stdDeviation="2"/>
<feComposite in2="hardAlpha" operator="out"/>
<feColorMatrix type="matrix" values="0 0 0 0 0 0 0 0 0 0 0 0 0 0 0 0 0 0 0.25 0"/>
<feBlend mode="normal" in2="BackgroundImageFix" result="effect1_dropShadow_507_311"/>
<feBlend mode="normal" in="SourceGraphic" in2="effect1_dropShadow_507_311" result="shape"/>
</filter>
<filter id="filter2_d_507_311" x="155.136" y="1.68506" width="37.5423" height="37.5422" filterUnits="userSpaceOnUse" color-interpolation-filters="sRGB">
<feFlood flood-opacity="0" result="BackgroundImageFix"/>
<feColorMatrix in="SourceAlpha" type="matrix" values="0 0 0 0 0 0 0 0 0 0 0 0 0 0 0 0 0 0 127 0" result="hardAlpha"/>
<feOffset dx="2" dy="4"/>
<feGaussianBlur stdDeviation="2"/>
<feComposite in2="hardAlpha" operator="out"/>
<feColorMatrix type="matrix" values="0 0 0 0 0 0 0 0 0 0 0 0 0 0 0 0 0 0 0.25 0"/>
<feBlend mode="normal" in2="BackgroundImageFix" result="effect1_dropShadow_507_311"/>
<feBlend mode="normal" in="SourceGraphic" in2="effect1_dropShadow_507_311" result="shape"/>
</filter>
<filter id="filter3_d_507_311" x="109.346" y="1.68506" width="37.5423" height="37.5422" filterUnits="userSpaceOnUse" color-interpolation-filters="sRGB">
<feFlood flood-opacity="0" result="BackgroundImageFix"/>
<feColorMatrix in="SourceAlpha" type="matrix" values="0 0 0 0 0 0 0 0 0 0 0 0 0 0 0 0 0 0 127 0" result="hardAlpha"/>
<feOffset dx="2" dy="4"/>
<feGaussianBlur stdDeviation="2"/>
<feComposite in2="hardAlpha" operator="out"/>
<feColorMatrix type="matrix" values="0 0 0 0 0 0 0 0 0 0 0 0 0 0 0 0 0 0 0.25 0"/>
<feBlend mode="normal" in2="BackgroundImageFix" result="effect1_dropShadow_507_311"/>
<feBlend mode="normal" in="SourceGraphic" in2="effect1_dropShadow_507_311" result="shape"/>
</filter>
<clipPath id="clip0_507_311">
<rect width="36.9279" height="31.0971" fill="white" transform="translate(290.814 0.209473)"/>
</clipPath>
<clipPath id="clip1_507_311">
<rect width="36.9279" height="31.0971" fill="white" transform="translate(245.024 0.209473)"/>
</clipPath>
<clipPath id="clip2_507_311">
<rect width="36.9279" height="31.0971" fill="white" transform="translate(199.234 0.209473)"/>
</clipPath>
<clipPath id="clip3_507_311">
<rect width="36.9279" height="31.0971" fill="white" transform="translate(153.443 0.209473)"/>
</clipPath>
<clipPath id="clip4_507_311">
<rect width="36.9279" height="31.0971" fill="white" transform="translate(107.653 0.209473)"/>
</clipPath>
</defs>
</svg>
