<svg width="386" height="40" viewBox="0 0 386 40" fill="none" xmlns="http://www.w3.org/2000/svg">
<g opacity="0.85" clip-path="url(#clip0_507_267)">
<path d="M364.487 3.94801C365.171 3.98404 365.856 4.0561 366.504 4.09214C370.323 4.34436 373.926 5.31722 377.205 7.29898C380.663 9.3528 383.329 12.1633 384.843 15.9466C386.608 20.3065 385.779 24.0538 382.321 27.2607C381.96 27.585 381.564 27.9092 381.168 28.2335C378.826 29.9991 376.124 31.044 373.241 31.4764C368.486 32.197 363.838 31.6926 359.335 29.927C356.596 28.8461 354.255 27.2607 352.489 24.8465C349.463 20.7029 349.102 16.307 351.588 11.7669C352.489 10.1095 353.678 8.63216 355.047 7.33501C355.299 7.08279 355.588 6.83056 355.768 6.39818C355.516 6.39818 355.263 6.36215 355.047 6.43421C353.57 6.93866 352.057 7.4431 350.616 8.01962C349.535 8.452 349.139 8.48803 348.886 7.98358C348.67 7.47914 348.922 7.08279 349.895 6.54231C351.697 5.46135 353.714 4.92087 355.768 4.56055C356.416 4.45245 357.065 4.34436 357.713 4.2723C358.758 4.1642 359.695 3.87594 360.668 3.40753C365.207 1.20958 369.963 0.308784 374.971 0.849262C376.952 1.06545 378.862 1.64196 380.591 2.75895C380.915 2.97515 381.276 3.19134 381.456 3.51562C381.6 3.76785 381.564 4.20023 381.384 4.41642C381.276 4.56055 380.843 4.56055 380.555 4.52452C380.411 4.52452 380.303 4.38039 380.159 4.30833C378.502 3.15531 376.592 2.65086 374.647 2.4707C371.404 2.18244 368.197 2.54276 365.099 3.47959C364.919 3.51562 364.739 3.62372 364.559 3.69578C364.559 3.69578 364.559 3.76785 364.487 3.94801ZM369.891 30.1072C370.683 30.0351 372.161 29.9631 373.638 29.6748C376.88 29.0623 379.763 27.7291 382.032 25.2068C383.618 23.4413 384.374 21.3875 383.978 18.9733C383.546 16.4871 382.393 14.3252 380.771 12.4515C378.285 9.53296 375.079 7.69533 371.404 6.6504C367.801 5.60548 364.126 5.60548 360.415 5.7496C360.055 5.7496 359.659 5.92976 359.335 6.10992C356.416 7.98358 354.074 10.3617 352.597 13.4965C351.3 16.2709 351.264 19.0814 352.597 21.8198C354.038 24.7745 356.38 26.7922 359.371 28.0894C362.505 29.4226 365.784 29.9991 369.891 30.1072Z" fill="#BA9465"/>
</g>
<g filter="url(#filter0_d_507_267)">
<path d="M321.488 31.7144C317.571 31.7144 313.813 30.1582 311.043 27.388C308.273 24.6179 306.717 20.8608 306.717 16.9433C306.717 13.0257 308.273 9.26862 311.043 6.49849C313.813 3.72836 317.571 2.17212 321.488 2.17212V16.9433L321.488 31.7144Z" fill="#FDF0AA"/>
</g>
<g opacity="0.85" clip-path="url(#clip1_507_267)">
<path d="M318.696 3.94801C319.381 3.98404 320.065 4.0561 320.714 4.09214C324.533 4.34436 328.136 5.31722 331.414 7.29898C334.873 9.3528 337.539 12.1633 339.052 15.9466C340.818 20.3065 339.989 24.0538 336.53 27.2607C336.17 27.585 335.774 27.9092 335.377 28.2335C333.036 29.9991 330.334 31.044 327.451 31.4764C322.696 32.197 318.048 31.6926 313.544 29.927C310.806 28.8461 308.464 27.2607 306.699 24.8465C303.673 20.7029 303.312 16.307 305.798 11.7669C306.699 10.1095 307.888 8.63216 309.257 7.33501C309.509 7.08279 309.797 6.83056 309.978 6.39818C309.725 6.39818 309.473 6.36215 309.257 6.43421C307.78 6.93866 306.267 7.4431 304.826 8.01962C303.745 8.452 303.348 8.48803 303.096 7.98358C302.88 7.47914 303.132 7.08279 304.105 6.54231C305.906 5.46135 307.924 4.92087 309.978 4.56055C310.626 4.45245 311.275 4.34436 311.923 4.2723C312.968 4.1642 313.905 3.87594 314.877 3.40753C319.417 1.20958 324.173 0.308784 329.181 0.849262C331.162 1.06545 333.072 1.64196 334.801 2.75895C335.125 2.97515 335.486 3.19134 335.666 3.51562C335.81 3.76785 335.774 4.20023 335.594 4.41642C335.486 4.56055 335.053 4.56055 334.765 4.52452C334.621 4.52452 334.513 4.38039 334.369 4.30833C332.711 3.15531 330.802 2.65086 328.856 2.4707C325.614 2.18244 322.407 2.54276 319.309 3.47959C319.129 3.51562 318.949 3.62372 318.768 3.69578C318.768 3.69578 318.768 3.76785 318.696 3.94801ZM324.101 30.1072C324.893 30.0351 326.37 29.9631 327.848 29.6748C331.09 29.0623 333.972 27.7291 336.242 25.2068C337.827 23.4413 338.584 21.3875 338.188 18.9733C337.755 16.4871 336.602 14.3252 334.981 12.4515C332.495 9.53296 329.289 7.69533 325.614 6.6504C322.011 5.60548 318.336 5.60548 314.625 5.7496C314.265 5.7496 313.869 5.92976 313.544 6.10992C310.626 7.98358 308.284 10.3617 306.807 13.4965C305.51 16.2709 305.474 19.0814 306.807 21.8198C308.248 24.7745 310.59 26.7922 313.58 28.0894C316.715 29.4226 319.993 29.9991 324.101 30.1072Z" fill="#BA9465"/>
</g>
<g filter="url(#filter1_d_507_267)">
<ellipse cx="275.697" cy="16.9433" rx="14.7712" ry="14.7711" fill="#FDF0AA"/>
</g>
<g opacity="0.85" clip-path="url(#clip2_507_267)">
<path d="M272.906 3.94801C273.59 3.98404 274.275 4.0561 274.924 4.09214C278.743 4.34436 282.345 5.31722 285.624 7.29898C289.083 9.3528 291.749 12.1633 293.262 15.9466C295.027 20.3065 294.199 24.0538 290.74 27.2607C290.38 27.585 289.983 27.9092 289.587 28.2335C287.245 29.9991 284.543 31.044 281.661 31.4764C276.905 32.197 272.257 31.6926 267.754 29.927C265.016 28.8461 262.674 27.2607 260.909 24.8465C257.882 20.7029 257.522 16.307 260.008 11.7669C260.909 10.1095 262.097 8.63216 263.467 7.33501C263.719 7.08279 264.007 6.83056 264.187 6.39818C263.935 6.39818 263.683 6.36215 263.467 6.43421C261.989 6.93866 260.476 7.4431 259.035 8.01962C257.954 8.452 257.558 8.48803 257.306 7.98358C257.09 7.47914 257.342 7.08279 258.314 6.54231C260.116 5.46135 262.133 4.92087 264.187 4.56055C264.836 4.45245 265.484 4.34436 266.133 4.2723C267.177 4.1642 268.114 3.87594 269.087 3.40753C273.626 1.20958 278.382 0.308784 283.39 0.849262C285.372 1.06545 287.281 1.64196 289.011 2.75895C289.335 2.97515 289.695 3.19134 289.875 3.51562C290.019 3.76785 289.983 4.20023 289.803 4.41642C289.695 4.56055 289.263 4.56055 288.975 4.52452C288.83 4.52452 288.722 4.38039 288.578 4.30833C286.921 3.15531 285.011 2.65086 283.066 2.4707C279.823 2.18244 276.617 2.54276 273.518 3.47959C273.338 3.51562 273.158 3.62372 272.978 3.69578C272.978 3.69578 272.978 3.76785 272.906 3.94801ZM278.31 30.1072C279.103 30.0351 280.58 29.9631 282.057 29.6748C285.3 29.0623 288.182 27.7291 290.452 25.2068C292.037 23.4413 292.794 21.3875 292.397 18.9733C291.965 16.4871 290.812 14.3252 289.191 12.4515C286.705 9.53296 283.498 7.69533 279.823 6.6504C276.221 5.60548 272.546 5.60548 268.835 5.7496C268.474 5.7496 268.078 5.92976 267.754 6.10992C264.836 7.98358 262.494 10.3617 261.017 13.4965C259.72 16.2709 259.684 19.0814 261.017 21.8198C262.458 24.7745 264.8 26.7922 267.79 28.0894C270.924 29.4226 274.203 29.9991 278.31 30.1072Z" fill="#BA9465"/>
</g>
<g filter="url(#filter2_d_507_267)">
<ellipse cx="229.907" cy="16.9433" rx="14.7712" ry="14.7711" fill="#FDF0AA"/>
</g>
<g opacity="0.85" clip-path="url(#clip3_507_267)">
<path d="M227.115 3.94801C227.8 3.98404 228.484 4.0561 229.133 4.09214C232.952 4.34436 236.554 5.31722 239.833 7.29898C243.292 9.3528 245.958 12.1633 247.471 15.9466C249.236 20.3065 248.408 24.0538 244.949 27.2607C244.589 27.585 244.192 27.9092 243.796 28.2335C241.454 29.9991 238.752 31.044 235.87 31.4764C231.114 32.197 226.466 31.6926 221.963 29.927C219.225 28.8461 216.883 27.2607 215.118 24.8465C212.091 20.7029 211.731 16.307 214.217 11.7669C215.118 10.1095 216.306 8.63216 217.676 7.33501C217.928 7.08279 218.216 6.83056 218.396 6.39818C218.144 6.39818 217.892 6.36215 217.676 6.43421C216.198 6.93866 214.685 7.4431 213.244 8.01962C212.163 8.452 211.767 8.48803 211.515 7.98358C211.299 7.47914 211.551 7.08279 212.524 6.54231C214.325 5.46135 216.343 4.92087 218.396 4.56055C219.045 4.45245 219.693 4.34436 220.342 4.2723C221.386 4.1642 222.323 3.87594 223.296 3.40753C227.836 1.20958 232.591 0.308784 237.599 0.849262C239.581 1.06545 241.49 1.64196 243.22 2.75895C243.544 2.97515 243.904 3.19134 244.084 3.51562C244.228 3.76785 244.192 4.20023 244.012 4.41642C243.904 4.56055 243.472 4.56055 243.184 4.52452C243.039 4.52452 242.931 4.38039 242.787 4.30833C241.13 3.15531 239.22 2.65086 237.275 2.4707C234.032 2.18244 230.826 2.54276 227.727 3.47959C227.547 3.51562 227.367 3.62372 227.187 3.69578C227.187 3.69578 227.187 3.76785 227.115 3.94801ZM232.519 30.1072C233.312 30.0351 234.789 29.9631 236.266 29.6748C239.509 29.0623 242.391 27.7291 244.661 25.2068C246.246 23.4413 247.003 21.3875 246.606 18.9733C246.174 16.4871 245.021 14.3252 243.4 12.4515C240.914 9.53296 237.707 7.69533 234.032 6.6504C230.43 5.60548 226.755 5.60548 223.044 5.7496C222.684 5.7496 222.287 5.92976 221.963 6.10992C219.045 7.98358 216.703 10.3617 215.226 13.4965C213.929 16.2709 213.893 19.0814 215.226 21.8198C216.667 24.7745 219.009 26.7922 221.999 28.0894C225.133 29.4226 228.412 29.9991 232.519 30.1072Z" fill="#BA9465"/>
</g>
<g filter="url(#filter3_d_507_267)">
<ellipse cx="184.117" cy="16.9433" rx="14.7712" ry="14.7711" fill="#FDF0AA"/>
</g>
<g opacity="0.85" clip-path="url(#clip4_507_267)">
<path d="M181.325 3.94801C182.01 3.98404 182.694 4.0561 183.343 4.09214C187.162 4.34436 190.765 5.31722 194.043 7.29898C197.502 9.3528 200.168 12.1633 201.681 15.9466C203.446 20.3065 202.618 24.0538 199.159 27.2607C198.799 27.585 198.403 27.9092 198.006 28.2335C195.664 29.9991 192.962 31.044 190.08 31.4764C185.324 32.197 180.677 31.6926 176.173 29.927C173.435 28.8461 171.093 27.2607 169.328 24.8465C166.301 20.7029 165.941 16.307 168.427 11.7669C169.328 10.1095 170.517 8.63216 171.886 7.33501C172.138 7.08279 172.426 6.83056 172.606 6.39818C172.354 6.39818 172.102 6.36215 171.886 6.43421C170.409 6.93866 168.895 7.4431 167.454 8.01962C166.373 8.452 165.977 8.48803 165.725 7.98358C165.509 7.47914 165.761 7.08279 166.734 6.54231C168.535 5.46135 170.553 4.92087 172.606 4.56055C173.255 4.45245 173.903 4.34436 174.552 4.2723C175.597 4.1642 176.533 3.87594 177.506 3.40753C182.046 1.20958 186.801 0.308784 191.809 0.849262C193.791 1.06545 195.7 1.64196 197.43 2.75895C197.754 2.97515 198.114 3.19134 198.294 3.51562C198.439 3.76785 198.403 4.20023 198.222 4.41642C198.114 4.56055 197.682 4.56055 197.394 4.52452C197.25 4.52452 197.142 4.38039 196.997 4.30833C195.34 3.15531 193.431 2.65086 191.485 2.4707C188.243 2.18244 185.036 2.54276 181.938 3.47959C181.757 3.51562 181.577 3.62372 181.397 3.69578C181.397 3.69578 181.397 3.76785 181.325 3.94801ZM186.729 30.1072C187.522 30.0351 188.999 29.9631 190.476 29.6748C193.719 29.0623 196.601 27.7291 198.871 25.2068C200.456 23.4413 201.213 21.3875 200.816 18.9733C200.384 16.4871 199.231 14.3252 197.61 12.4515C195.124 9.53296 191.917 7.69533 188.243 6.6504C184.64 5.60548 180.965 5.60548 177.254 5.7496C176.894 5.7496 176.497 5.92976 176.173 6.10992C173.255 7.98358 170.913 10.3617 169.436 13.4965C168.139 16.2709 168.103 19.0814 169.436 21.8198C170.877 24.7745 173.219 26.7922 176.209 28.0894C179.344 29.4226 182.622 29.9991 186.729 30.1072Z" fill="#BA9465"/>
</g>
<line opacity="0.75" x1="0.0133208" y1="17.1595" x2="154.01" y2="18.1852" stroke="black" stroke-width="4" stroke-dasharray="2 4 6 8"/>
<defs>
<filter id="filter0_d_507_267" x="304.717" y="2.17212" width="22.7712" height="37.5422" filterUnits="userSpaceOnUse" color-interpolation-filters="sRGB">
<feFlood flood-opacity="0" result="BackgroundImageFix"/>
<feColorMatrix in="SourceAlpha" type="matrix" values="0 0 0 0 0 0 0 0 0 0 0 0 0 0 0 0 0 0 127 0" result="hardAlpha"/>
<feOffset dx="2" dy="4"/>
<feGaussianBlur stdDeviation="2"/>
<feComposite in2="hardAlpha" operator="out"/>
<feColorMatrix type="matrix" values="0 0 0 0 0 0 0 0 0 0 0 0 0 0 0 0 0 0 0.25 0"/>
<feBlend mode="normal" in2="BackgroundImageFix" result="effect1_dropShadow_507_267"/>
<feBlend mode="normal" in="SourceGraphic" in2="effect1_dropShadow_507_267" result="shape"/>
</filter>
<filter id="filter1_d_507_267" x="258.926" y="2.17212" width="37.5423" height="37.5422" filterUnits="userSpaceOnUse" color-interpolation-filters="sRGB">
<feFlood flood-opacity="0" result="BackgroundImageFix"/>
<feColorMatrix in="SourceAlpha" type="matrix" values="0 0 0 0 0 0 0 0 0 0 0 0 0 0 0 0 0 0 127 0" result="hardAlpha"/>
<feOffset dx="2" dy="4"/>
<feGaussianBlur stdDeviation="2"/>
<feComposite in2="hardAlpha" operator="out"/>
<feColorMatrix type="matrix" values="0 0 0 0 0 0 0 0 0 0 0 0 0 0 0 0 0 0 0.25 0"/>
<feBlend mode="normal" in2="BackgroundImageFix" result="effect1_dropShadow_507_267"/>
<feBlend mode="normal" in="SourceGraphic" in2="effect1_dropShadow_507_267" result="shape"/>
</filter>
<filter id="filter2_d_507_267" x="213.136" y="2.17212" width="37.5423" height="37.5422" filterUnits="userSpaceOnUse" color-interpolation-filters="sRGB">
<feFlood flood-opacity="0" result="BackgroundImageFix"/>
<feColorMatrix in="SourceAlpha" type="matrix" values="0 0 0 0 0 0 0 0 0 0 0 0 0 0 0 0 0 0 127 0" result="hardAlpha"/>
<feOffset dx="2" dy="4"/>
<feGaussianBlur stdDeviation="2"/>
<feComposite in2="hardAlpha" operator="out"/>
<feColorMatrix type="matrix" values="0 0 0 0 0 0 0 0 0 0 0 0 0 0 0 0 0 0 0.25 0"/>
<feBlend mode="normal" in2="BackgroundImageFix" result="effect1_dropShadow_507_267"/>
<feBlend mode="normal" in="SourceGraphic" in2="effect1_dropShadow_507_267" result="shape"/>
</filter>
<filter id="filter3_d_507_267" x="167.346" y="2.17212" width="37.5423" height="37.5422" filterUnits="userSpaceOnUse" color-interpolation-filters="sRGB">
<feFlood flood-opacity="0" result="BackgroundImageFix"/>
<feColorMatrix in="SourceAlpha" type="matrix" values="0 0 0 0 0 0 0 0 0 0 0 0 0 0 0 0 0 0 127 0" result="hardAlpha"/>
<feOffset dx="2" dy="4"/>
<feGaussianBlur stdDeviation="2"/>
<feComposite in2="hardAlpha" operator="out"/>
<feColorMatrix type="matrix" values="0 0 0 0 0 0 0 0 0 0 0 0 0 0 0 0 0 0 0.25 0"/>
<feBlend mode="normal" in2="BackgroundImageFix" result="effect1_dropShadow_507_267"/>
<feBlend mode="normal" in="SourceGraphic" in2="effect1_dropShadow_507_267" result="shape"/>
</filter>
<clipPath id="clip0_507_267">
<rect width="36.9279" height="31.0971" fill="white" transform="translate(348.814 0.696289)"/>
</clipPath>
<clipPath id="clip1_507_267">
<rect width="36.9279" height="31.0971" fill="white" transform="translate(303.024 0.696289)"/>
</clipPath>
<clipPath id="clip2_507_267">
<rect width="36.9279" height="31.0971" fill="white" transform="translate(257.234 0.696289)"/>
</clipPath>
<clipPath id="clip3_507_267">
<rect width="36.9279" height="31.0971" fill="white" transform="translate(211.443 0.696289)"/>
</clipPath>
<clipPath id="clip4_507_267">
<rect width="36.9279" height="31.0971" fill="white" transform="translate(165.653 0.696289)"/>
</clipPath>
</defs>
</svg>
