<svg width="446" height="40" viewBox="0 0 446 40" fill="none" xmlns="http://www.w3.org/2000/svg">
<g opacity="0.85" clip-path="url(#clip0_507_245)">
<path d="M424.487 3.69166C425.171 3.72769 425.856 3.79976 426.504 3.83579C430.323 4.08801 433.926 5.06087 437.205 7.04263C440.663 9.09645 443.329 11.9069 444.843 15.6903C446.608 20.0502 445.779 23.7975 442.321 27.0043C441.96 27.3286 441.564 27.6529 441.168 27.9772C438.826 29.7427 436.124 30.7877 433.241 31.2201C428.486 31.9407 423.838 31.4362 419.335 29.6707C416.596 28.5897 414.255 27.0043 412.489 24.5902C409.463 20.4465 409.102 16.0506 411.588 11.5106C412.489 9.85312 413.678 8.37581 415.047 7.07866C415.299 6.82644 415.588 6.57421 415.768 6.14183C415.516 6.14183 415.263 6.1058 415.047 6.17786C413.57 6.68231 412.057 7.18676 410.616 7.76327C409.535 8.19565 409.139 8.23168 408.886 7.72724C408.67 7.22279 408.922 6.82644 409.895 6.28596C411.697 5.205 413.714 4.66452 415.768 4.3042C416.416 4.19611 417.065 4.08801 417.713 4.01595C418.758 3.90785 419.695 3.6196 420.668 3.15118C425.207 0.953234 429.963 0.0524359 434.971 0.592915C436.952 0.809106 438.862 1.38562 440.591 2.50261C440.915 2.7188 441.276 2.93499 441.456 3.25928C441.6 3.5115 441.564 3.94388 441.384 4.16008C441.276 4.3042 440.843 4.3042 440.555 4.26817C440.411 4.26817 440.303 4.12404 440.159 4.05198C438.502 2.89896 436.592 2.39451 434.647 2.21435C431.404 1.9261 428.197 2.28642 425.099 3.22325C424.919 3.25928 424.739 3.36737 424.559 3.43944C424.559 3.43944 424.559 3.5115 424.487 3.69166ZM429.891 29.8508C430.683 29.7788 432.161 29.7067 433.638 29.4185C436.88 28.8059 439.763 27.4727 442.032 24.9505C443.618 23.1849 444.374 21.1311 443.978 18.717C443.546 16.2308 442.393 14.0689 440.771 12.1952C438.285 9.27661 435.079 7.43898 431.404 6.39405C427.801 5.34913 424.126 5.34913 420.415 5.49326C420.055 5.49326 419.659 5.67342 419.335 5.85358C416.416 7.72724 414.074 10.1053 412.597 13.2401C411.3 16.0146 411.264 18.8251 412.597 21.5635C414.038 24.5181 416.38 26.5359 419.371 27.8331C422.505 29.1662 425.784 29.7427 429.891 29.8508Z" fill="#BA9465"/>
</g>
<g filter="url(#filter0_d_507_245)">
<ellipse cx="381.488" cy="16.6913" rx="14.7712" ry="14.7711" fill="#FDF0AA"/>
</g>
<g opacity="0.85" clip-path="url(#clip1_507_245)">
<path d="M378.696 3.69166C379.381 3.72769 380.065 3.79976 380.714 3.83579C384.533 4.08801 388.136 5.06087 391.414 7.04263C394.873 9.09645 397.539 11.9069 399.052 15.6903C400.818 20.0502 399.989 23.7975 396.53 27.0043C396.17 27.3286 395.774 27.6529 395.377 27.9772C393.036 29.7427 390.334 30.7877 387.451 31.2201C382.696 31.9407 378.048 31.4362 373.544 29.6707C370.806 28.5897 368.464 27.0043 366.699 24.5902C363.673 20.4465 363.312 16.0506 365.798 11.5106C366.699 9.85312 367.888 8.37581 369.257 7.07866C369.509 6.82644 369.797 6.57421 369.978 6.14183C369.725 6.14183 369.473 6.1058 369.257 6.17786C367.78 6.68231 366.267 7.18676 364.826 7.76327C363.745 8.19565 363.348 8.23168 363.096 7.72724C362.88 7.22279 363.132 6.82644 364.105 6.28596C365.906 5.205 367.924 4.66452 369.978 4.3042C370.626 4.19611 371.275 4.08801 371.923 4.01595C372.968 3.90785 373.905 3.6196 374.877 3.15118C379.417 0.953234 384.173 0.0524359 389.181 0.592915C391.162 0.809106 393.072 1.38562 394.801 2.50261C395.125 2.7188 395.486 2.93499 395.666 3.25928C395.81 3.5115 395.774 3.94388 395.594 4.16008C395.486 4.3042 395.053 4.3042 394.765 4.26817C394.621 4.26817 394.513 4.12404 394.369 4.05198C392.711 2.89896 390.802 2.39451 388.856 2.21435C385.614 1.9261 382.407 2.28642 379.309 3.22325C379.129 3.25928 378.949 3.36737 378.768 3.43944C378.768 3.43944 378.768 3.5115 378.696 3.69166ZM384.101 29.8508C384.893 29.7788 386.37 29.7067 387.848 29.4185C391.09 28.8059 393.972 27.4727 396.242 24.9505C397.827 23.1849 398.584 21.1311 398.188 18.717C397.755 16.2308 396.602 14.0689 394.981 12.1952C392.495 9.27661 389.289 7.43898 385.614 6.39405C382.011 5.34913 378.336 5.34913 374.625 5.49326C374.265 5.49326 373.869 5.67342 373.544 5.85358C370.626 7.72724 368.284 10.1053 366.807 13.2401C365.51 16.0146 365.474 18.8251 366.807 21.5635C368.248 24.5181 370.59 26.5359 373.58 27.8331C376.715 29.1662 379.993 29.7427 384.101 29.8508Z" fill="#BA9465"/>
</g>
<g filter="url(#filter1_d_507_245)">
<ellipse cx="335.697" cy="16.6913" rx="14.7712" ry="14.7711" fill="#FDF0AA"/>
</g>
<g opacity="0.85" clip-path="url(#clip2_507_245)">
<path d="M332.906 3.69166C333.59 3.72769 334.275 3.79976 334.924 3.83579C338.743 4.08801 342.345 5.06087 345.624 7.04263C349.083 9.09645 351.749 11.9069 353.262 15.6903C355.027 20.0502 354.199 23.7975 350.74 27.0043C350.38 27.3286 349.983 27.6529 349.587 27.9772C347.245 29.7427 344.543 30.7877 341.661 31.2201C336.905 31.9407 332.257 31.4362 327.754 29.6707C325.016 28.5897 322.674 27.0043 320.909 24.5902C317.882 20.4465 317.522 16.0506 320.008 11.5106C320.909 9.85312 322.097 8.37581 323.467 7.07866C323.719 6.82644 324.007 6.57421 324.187 6.14183C323.935 6.14183 323.683 6.1058 323.467 6.17786C321.989 6.68231 320.476 7.18676 319.035 7.76327C317.954 8.19565 317.558 8.23168 317.306 7.72724C317.09 7.22279 317.342 6.82644 318.314 6.28596C320.116 5.205 322.133 4.66452 324.187 4.3042C324.836 4.19611 325.484 4.08801 326.133 4.01595C327.177 3.90785 328.114 3.6196 329.087 3.15118C333.626 0.953234 338.382 0.0524359 343.39 0.592915C345.372 0.809106 347.281 1.38562 349.011 2.50261C349.335 2.7188 349.695 2.93499 349.875 3.25928C350.019 3.5115 349.983 3.94388 349.803 4.16008C349.695 4.3042 349.263 4.3042 348.975 4.26817C348.83 4.26817 348.722 4.12404 348.578 4.05198C346.921 2.89896 345.011 2.39451 343.066 2.21435C339.823 1.9261 336.617 2.28642 333.518 3.22325C333.338 3.25928 333.158 3.36737 332.978 3.43944C332.978 3.43944 332.978 3.5115 332.906 3.69166ZM338.31 29.8508C339.103 29.7788 340.58 29.7067 342.057 29.4185C345.3 28.8059 348.182 27.4727 350.452 24.9505C352.037 23.1849 352.794 21.1311 352.397 18.717C351.965 16.2308 350.812 14.0689 349.191 12.1952C346.705 9.27661 343.498 7.43898 339.823 6.39405C336.221 5.34913 332.546 5.34913 328.835 5.49326C328.474 5.49326 328.078 5.67342 327.754 5.85358C324.836 7.72724 322.494 10.1053 321.017 13.2401C319.72 16.0146 319.684 18.8251 321.017 21.5635C322.458 24.5181 324.8 26.5359 327.79 27.8331C330.924 29.1662 334.203 29.7427 338.31 29.8508Z" fill="#BA9465"/>
</g>
<g filter="url(#filter2_d_507_245)">
<ellipse cx="289.907" cy="16.6913" rx="14.7712" ry="14.7711" fill="#FDF0AA"/>
</g>
<g opacity="0.85" clip-path="url(#clip3_507_245)">
<path d="M287.115 3.69166C287.8 3.72769 288.484 3.79976 289.133 3.83579C292.952 4.08801 296.555 5.06087 299.833 7.04263C303.292 9.09645 305.958 11.9069 307.471 15.6903C309.236 20.0502 308.408 23.7975 304.949 27.0043C304.589 27.3286 304.193 27.6529 303.796 27.9772C301.454 29.7427 298.752 30.7877 295.87 31.2201C291.114 31.9407 286.467 31.4362 281.963 29.6707C279.225 28.5897 276.883 27.0043 275.118 24.5902C272.091 20.4465 271.731 16.0506 274.217 11.5106C275.118 9.85312 276.307 8.37581 277.676 7.07866C277.928 6.82644 278.216 6.57421 278.396 6.14183C278.144 6.14183 277.892 6.1058 277.676 6.17786C276.199 6.68231 274.685 7.18676 273.244 7.76327C272.163 8.19565 271.767 8.23168 271.515 7.72724C271.299 7.22279 271.551 6.82644 272.524 6.28596C274.325 5.205 276.343 4.66452 278.396 4.3042C279.045 4.19611 279.693 4.08801 280.342 4.01595C281.387 3.90785 282.323 3.6196 283.296 3.15118C287.836 0.953234 292.591 0.0524359 297.599 0.592915C299.581 0.809106 301.49 1.38562 303.22 2.50261C303.544 2.7188 303.904 2.93499 304.084 3.25928C304.229 3.5115 304.193 3.94388 304.012 4.16008C303.904 4.3042 303.472 4.3042 303.184 4.26817C303.04 4.26817 302.932 4.12404 302.787 4.05198C301.13 2.89896 299.221 2.39451 297.275 2.21435C294.033 1.9261 290.826 2.28642 287.728 3.22325C287.547 3.25928 287.367 3.36737 287.187 3.43944C287.187 3.43944 287.187 3.5115 287.115 3.69166ZM292.519 29.8508C293.312 29.7788 294.789 29.7067 296.266 29.4185C299.509 28.8059 302.391 27.4727 304.661 24.9505C306.246 23.1849 307.003 21.1311 306.606 18.717C306.174 16.2308 305.021 14.0689 303.4 12.1952C300.914 9.27661 297.707 7.43898 294.033 6.39405C290.43 5.34913 286.755 5.34913 283.044 5.49326C282.684 5.49326 282.287 5.67342 281.963 5.85358C279.045 7.72724 276.703 10.1053 275.226 13.2401C273.929 16.0146 273.893 18.8251 275.226 21.5635C276.667 24.5181 279.009 26.5359 281.999 27.8331C285.134 29.1662 288.412 29.7427 292.519 29.8508Z" fill="#BA9465"/>
</g>
<g filter="url(#filter3_d_507_245)">
<ellipse cx="244.117" cy="16.6913" rx="14.7712" ry="14.7711" fill="#FDF0AA"/>
</g>
<g opacity="0.85" clip-path="url(#clip4_507_245)">
<path d="M241.325 3.69166C242.01 3.72769 242.694 3.79976 243.343 3.83579C247.162 4.08801 250.765 5.06087 254.043 7.04263C257.502 9.09645 260.168 11.9069 261.681 15.6903C263.446 20.0502 262.618 23.7975 259.159 27.0043C258.799 27.3286 258.403 27.6529 258.006 27.9772C255.664 29.7427 252.962 30.7877 250.08 31.2201C245.324 31.9407 240.677 31.4362 236.173 29.6707C233.435 28.5897 231.093 27.0043 229.328 24.5902C226.301 20.4465 225.941 16.0506 228.427 11.5106C229.328 9.85312 230.517 8.37581 231.886 7.07866C232.138 6.82644 232.426 6.57421 232.606 6.14183C232.354 6.14183 232.102 6.1058 231.886 6.17786C230.409 6.68231 228.895 7.18676 227.454 7.76327C226.373 8.19565 225.977 8.23168 225.725 7.72724C225.509 7.22279 225.761 6.82644 226.734 6.28596C228.535 5.205 230.553 4.66452 232.606 4.3042C233.255 4.19611 233.903 4.08801 234.552 4.01595C235.597 3.90785 236.533 3.6196 237.506 3.15118C242.046 0.953234 246.801 0.0524359 251.809 0.592915C253.791 0.809106 255.7 1.38562 257.43 2.50261C257.754 2.7188 258.114 2.93499 258.294 3.25928C258.439 3.5115 258.403 3.94388 258.222 4.16008C258.114 4.3042 257.682 4.3042 257.394 4.26817C257.25 4.26817 257.142 4.12404 256.997 4.05198C255.34 2.89896 253.431 2.39451 251.485 2.21435C248.243 1.9261 245.036 2.28642 241.938 3.22325C241.757 3.25928 241.577 3.36737 241.397 3.43944C241.397 3.43944 241.397 3.5115 241.325 3.69166ZM246.729 29.8508C247.522 29.7788 248.999 29.7067 250.476 29.4185C253.719 28.8059 256.601 27.4727 258.871 24.9505C260.456 23.1849 261.213 21.1311 260.816 18.717C260.384 16.2308 259.231 14.0689 257.61 12.1952C255.124 9.27661 251.917 7.43898 248.243 6.39405C244.64 5.34913 240.965 5.34913 237.254 5.49326C236.894 5.49326 236.497 5.67342 236.173 5.85358C233.255 7.72724 230.913 10.1053 229.436 13.2401C228.139 16.0146 228.103 18.8251 229.436 21.5635C230.877 24.5181 233.219 26.5359 236.209 27.8331C239.344 29.1662 242.622 29.7427 246.729 29.8508Z" fill="#BA9465"/>
</g>
<line opacity="0.75" x1="0.0133208" y1="17.6429" x2="220.008" y2="19.1082" stroke="black" stroke-width="4" stroke-dasharray="2 4 6 8"/>
<defs>
<filter id="filter0_d_507_245" x="364.717" y="1.92017" width="37.5423" height="37.5422" filterUnits="userSpaceOnUse" color-interpolation-filters="sRGB">
<feFlood flood-opacity="0" result="BackgroundImageFix"/>
<feColorMatrix in="SourceAlpha" type="matrix" values="0 0 0 0 0 0 0 0 0 0 0 0 0 0 0 0 0 0 127 0" result="hardAlpha"/>
<feOffset dx="2" dy="4"/>
<feGaussianBlur stdDeviation="2"/>
<feComposite in2="hardAlpha" operator="out"/>
<feColorMatrix type="matrix" values="0 0 0 0 0 0 0 0 0 0 0 0 0 0 0 0 0 0 0.25 0"/>
<feBlend mode="normal" in2="BackgroundImageFix" result="effect1_dropShadow_507_245"/>
<feBlend mode="normal" in="SourceGraphic" in2="effect1_dropShadow_507_245" result="shape"/>
</filter>
<filter id="filter1_d_507_245" x="318.926" y="1.92017" width="37.5423" height="37.5422" filterUnits="userSpaceOnUse" color-interpolation-filters="sRGB">
<feFlood flood-opacity="0" result="BackgroundImageFix"/>
<feColorMatrix in="SourceAlpha" type="matrix" values="0 0 0 0 0 0 0 0 0 0 0 0 0 0 0 0 0 0 127 0" result="hardAlpha"/>
<feOffset dx="2" dy="4"/>
<feGaussianBlur stdDeviation="2"/>
<feComposite in2="hardAlpha" operator="out"/>
<feColorMatrix type="matrix" values="0 0 0 0 0 0 0 0 0 0 0 0 0 0 0 0 0 0 0.25 0"/>
<feBlend mode="normal" in2="BackgroundImageFix" result="effect1_dropShadow_507_245"/>
<feBlend mode="normal" in="SourceGraphic" in2="effect1_dropShadow_507_245" result="shape"/>
</filter>
<filter id="filter2_d_507_245" x="273.136" y="1.92017" width="37.5423" height="37.5422" filterUnits="userSpaceOnUse" color-interpolation-filters="sRGB">
<feFlood flood-opacity="0" result="BackgroundImageFix"/>
<feColorMatrix in="SourceAlpha" type="matrix" values="0 0 0 0 0 0 0 0 0 0 0 0 0 0 0 0 0 0 127 0" result="hardAlpha"/>
<feOffset dx="2" dy="4"/>
<feGaussianBlur stdDeviation="2"/>
<feComposite in2="hardAlpha" operator="out"/>
<feColorMatrix type="matrix" values="0 0 0 0 0 0 0 0 0 0 0 0 0 0 0 0 0 0 0.25 0"/>
<feBlend mode="normal" in2="BackgroundImageFix" result="effect1_dropShadow_507_245"/>
<feBlend mode="normal" in="SourceGraphic" in2="effect1_dropShadow_507_245" result="shape"/>
</filter>
<filter id="filter3_d_507_245" x="227.346" y="1.92017" width="37.5423" height="37.5422" filterUnits="userSpaceOnUse" color-interpolation-filters="sRGB">
<feFlood flood-opacity="0" result="BackgroundImageFix"/>
<feColorMatrix in="SourceAlpha" type="matrix" values="0 0 0 0 0 0 0 0 0 0 0 0 0 0 0 0 0 0 127 0" result="hardAlpha"/>
<feOffset dx="2" dy="4"/>
<feGaussianBlur stdDeviation="2"/>
<feComposite in2="hardAlpha" operator="out"/>
<feColorMatrix type="matrix" values="0 0 0 0 0 0 0 0 0 0 0 0 0 0 0 0 0 0 0.25 0"/>
<feBlend mode="normal" in2="BackgroundImageFix" result="effect1_dropShadow_507_245"/>
<feBlend mode="normal" in="SourceGraphic" in2="effect1_dropShadow_507_245" result="shape"/>
</filter>
<clipPath id="clip0_507_245">
<rect width="36.9279" height="31.0971" fill="white" transform="translate(408.814 0.439941)"/>
</clipPath>
<clipPath id="clip1_507_245">
<rect width="36.9279" height="31.0971" fill="white" transform="translate(363.024 0.439941)"/>
</clipPath>
<clipPath id="clip2_507_245">
<rect width="36.9279" height="31.0971" fill="white" transform="translate(317.234 0.439941)"/>
</clipPath>
<clipPath id="clip3_507_245">
<rect width="36.9279" height="31.0971" fill="white" transform="translate(271.443 0.439941)"/>
</clipPath>
<clipPath id="clip4_507_245">
<rect width="36.9279" height="31.0971" fill="white" transform="translate(225.653 0.439941)"/>
</clipPath>
</defs>
</svg>
