<svg width="378" height="40" viewBox="0 0 378 40" fill="none" xmlns="http://www.w3.org/2000/svg">
<g opacity="0.85" clip-path="url(#clip0_507_333)">
<path d="M356.487 3.71168C357.171 3.74771 357.856 3.81978 358.504 3.85581C362.323 4.10803 365.926 5.08089 369.205 7.06265C372.663 9.11647 375.329 11.927 376.843 15.7103C378.608 20.0702 377.779 23.8175 374.321 27.0243C373.96 27.3486 373.564 27.6729 373.168 27.9972C370.826 29.7628 368.124 30.8077 365.241 31.2401C360.486 31.9607 355.838 31.4563 351.335 29.6907C348.596 28.6097 346.255 27.0243 344.489 24.6102C341.463 20.4665 341.102 16.0706 343.588 11.5306C344.489 9.87314 345.678 8.39583 347.047 7.09868C347.299 6.84646 347.588 6.59423 347.768 6.16185C347.516 6.16185 347.263 6.12582 347.047 6.19788C345.57 6.70233 344.057 7.20678 342.616 7.78329C341.535 8.21567 341.139 8.2517 340.886 7.74726C340.67 7.24281 340.922 6.84646 341.895 6.30598C343.697 5.22502 345.714 4.68454 347.768 4.32422C348.416 4.21613 349.065 4.10803 349.713 4.03597C350.758 3.92787 351.695 3.63962 352.668 3.1712C357.207 0.973254 361.963 0.0724554 366.971 0.612934C368.952 0.829126 370.862 1.40564 372.591 2.52263C372.915 2.73882 373.276 2.95501 373.456 3.2793C373.6 3.53152 373.564 3.9639 373.384 4.18009C373.276 4.32422 372.843 4.32422 372.555 4.28819C372.411 4.28819 372.303 4.14406 372.159 4.072C370.502 2.91898 368.592 2.41453 366.647 2.23437C363.404 1.94612 360.197 2.30643 357.099 3.24326C356.919 3.2793 356.739 3.38739 356.559 3.45946C356.559 3.45946 356.559 3.53152 356.487 3.71168ZM361.891 29.8709C362.683 29.7988 364.161 29.7267 365.638 29.4385C368.88 28.8259 371.763 27.4928 374.032 24.9705C375.618 23.205 376.374 21.1511 375.978 18.737C375.546 16.2508 374.393 14.0889 372.771 12.2152C370.285 9.29663 367.079 7.459 363.404 6.41407C359.801 5.36915 356.126 5.36915 352.415 5.51328C352.055 5.51328 351.659 5.69344 351.335 5.8736C348.416 7.74726 346.074 10.1254 344.597 13.2601C343.3 16.0346 343.264 18.8451 344.597 21.5835C346.038 24.5381 348.38 26.5559 351.371 27.8531C354.505 29.1863 357.784 29.7628 361.891 29.8709Z" fill="#BA9465"/>
</g>
<g filter="url(#filter0_d_507_333)">
<ellipse cx="313.488" cy="16.7094" rx="14.7712" ry="14.7711" fill="#FDF0AA"/>
</g>
<g opacity="0.85" clip-path="url(#clip1_507_333)">
<path d="M310.696 3.71168C311.381 3.74771 312.065 3.81978 312.714 3.85581C316.533 4.10803 320.136 5.08089 323.414 7.06265C326.873 9.11647 329.539 11.927 331.052 15.7103C332.818 20.0702 331.989 23.8175 328.53 27.0243C328.17 27.3486 327.774 27.6729 327.377 27.9972C325.036 29.7628 322.334 30.8077 319.451 31.2401C314.696 31.9607 310.048 31.4563 305.544 29.6907C302.806 28.6097 300.464 27.0243 298.699 24.6102C295.673 20.4665 295.312 16.0706 297.798 11.5306C298.699 9.87314 299.888 8.39583 301.257 7.09868C301.509 6.84646 301.797 6.59423 301.978 6.16185C301.725 6.16185 301.473 6.12582 301.257 6.19788C299.78 6.70233 298.267 7.20678 296.826 7.78329C295.745 8.21567 295.348 8.2517 295.096 7.74726C294.88 7.24281 295.132 6.84646 296.105 6.30598C297.906 5.22502 299.924 4.68454 301.978 4.32422C302.626 4.21613 303.275 4.10803 303.923 4.03597C304.968 3.92787 305.905 3.63962 306.877 3.1712C311.417 0.973254 316.173 0.0724554 321.181 0.612934C323.162 0.829126 325.072 1.40564 326.801 2.52263C327.125 2.73882 327.486 2.95501 327.666 3.2793C327.81 3.53152 327.774 3.9639 327.594 4.18009C327.486 4.32422 327.053 4.32422 326.765 4.28819C326.621 4.28819 326.513 4.14406 326.369 4.072C324.711 2.91898 322.802 2.41453 320.856 2.23437C317.614 1.94612 314.407 2.30643 311.309 3.24326C311.129 3.2793 310.949 3.38739 310.768 3.45946C310.768 3.45946 310.768 3.53152 310.696 3.71168ZM316.101 29.8709C316.893 29.7988 318.37 29.7267 319.848 29.4385C323.09 28.8259 325.972 27.4928 328.242 24.9705C329.827 23.205 330.584 21.1511 330.188 18.737C329.755 16.2508 328.602 14.0889 326.981 12.2152C324.495 9.29663 321.289 7.459 317.614 6.41407C314.011 5.36915 310.336 5.36915 306.625 5.51328C306.265 5.51328 305.869 5.69344 305.544 5.8736C302.626 7.74726 300.284 10.1254 298.807 13.2601C297.51 16.0346 297.474 18.8451 298.807 21.5835C300.248 24.5381 302.59 26.5559 305.58 27.8531C308.715 29.1863 311.993 29.7628 316.101 29.8709Z" fill="#BA9465"/>
</g>
<g filter="url(#filter1_d_507_333)">
<ellipse cx="267.697" cy="16.7094" rx="14.7712" ry="14.7711" fill="#FDF0AA"/>
</g>
<g opacity="0.85" clip-path="url(#clip2_507_333)">
<path d="M264.906 3.71168C265.59 3.74771 266.275 3.81978 266.924 3.85581C270.743 4.10803 274.345 5.08089 277.624 7.06265C281.083 9.11647 283.749 11.927 285.262 15.7103C287.027 20.0702 286.199 23.8175 282.74 27.0243C282.38 27.3486 281.983 27.6729 281.587 27.9972C279.245 29.7628 276.543 30.8077 273.661 31.2401C268.905 31.9607 264.257 31.4563 259.754 29.6907C257.016 28.6097 254.674 27.0243 252.909 24.6102C249.882 20.4665 249.522 16.0706 252.008 11.5306C252.909 9.87314 254.097 8.39583 255.467 7.09868C255.719 6.84646 256.007 6.59423 256.187 6.16185C255.935 6.16185 255.683 6.12582 255.467 6.19788C253.989 6.70233 252.476 7.20678 251.035 7.78329C249.954 8.21567 249.558 8.2517 249.306 7.74726C249.09 7.24281 249.342 6.84646 250.314 6.30598C252.116 5.22502 254.133 4.68454 256.187 4.32422C256.836 4.21613 257.484 4.10803 258.133 4.03597C259.177 3.92787 260.114 3.63962 261.087 3.1712C265.626 0.973254 270.382 0.0724554 275.39 0.612934C277.372 0.829126 279.281 1.40564 281.011 2.52263C281.335 2.73882 281.695 2.95501 281.875 3.2793C282.019 3.53152 281.983 3.9639 281.803 4.18009C281.695 4.32422 281.263 4.32422 280.975 4.28819C280.83 4.28819 280.722 4.14406 280.578 4.072C278.921 2.91898 277.011 2.41453 275.066 2.23437C271.823 1.94612 268.617 2.30643 265.518 3.24326C265.338 3.2793 265.158 3.38739 264.978 3.45946C264.978 3.45946 264.978 3.53152 264.906 3.71168ZM270.31 29.8709C271.103 29.7988 272.58 29.7267 274.057 29.4385C277.3 28.8259 280.182 27.4928 282.452 24.9705C284.037 23.205 284.794 21.1511 284.397 18.737C283.965 16.2508 282.812 14.0889 281.191 12.2152C278.705 9.29663 275.498 7.459 271.823 6.41407C268.221 5.36915 264.546 5.36915 260.835 5.51328C260.474 5.51328 260.078 5.69344 259.754 5.8736C256.836 7.74726 254.494 10.1254 253.017 13.2601C251.72 16.0346 251.684 18.8451 253.017 21.5835C254.458 24.5381 256.8 26.5559 259.79 27.8531C262.924 29.1863 266.203 29.7628 270.31 29.8709Z" fill="#BA9465"/>
</g>
<g filter="url(#filter2_d_507_333)">
<ellipse cx="221.907" cy="16.7094" rx="14.7712" ry="14.7711" fill="#FDF0AA"/>
</g>
<g opacity="0.85" clip-path="url(#clip3_507_333)">
<path d="M219.115 3.71168C219.799 3.74771 220.484 3.81978 221.132 3.85581C224.951 4.10803 228.554 5.08089 231.833 7.06265C235.292 9.11647 237.958 11.927 239.471 15.7103C241.236 20.0702 240.408 23.8175 236.949 27.0243C236.589 27.3486 236.192 27.6729 235.796 27.9972C233.454 29.7628 230.752 30.8077 227.87 31.2401C223.114 31.9607 218.466 31.4563 213.963 29.6907C211.225 28.6097 208.883 27.0243 207.118 24.6102C204.091 20.4665 203.731 16.0706 206.217 11.5306C207.118 9.87314 208.306 8.39583 209.676 7.09868C209.928 6.84646 210.216 6.59423 210.396 6.16185C210.144 6.16185 209.892 6.12582 209.676 6.19788C208.198 6.70233 206.685 7.20678 205.244 7.78329C204.163 8.21567 203.767 8.2517 203.515 7.74726C203.299 7.24281 203.551 6.84646 204.523 6.30598C206.325 5.22502 208.342 4.68454 210.396 4.32422C211.045 4.21613 211.693 4.10803 212.342 4.03597C213.386 3.92787 214.323 3.63962 215.296 3.1712C219.835 0.973254 224.591 0.0724554 229.599 0.612934C231.581 0.829126 233.49 1.40564 235.22 2.52263C235.544 2.73882 235.904 2.95501 236.084 3.2793C236.228 3.53152 236.192 3.9639 236.012 4.18009C235.904 4.32422 235.472 4.32422 235.184 4.28819C235.039 4.28819 234.931 4.14406 234.787 4.072C233.13 2.91898 231.22 2.41453 229.275 2.23437C226.032 1.94612 222.826 2.30643 219.727 3.24326C219.547 3.2793 219.367 3.38739 219.187 3.45946C219.187 3.45946 219.187 3.53152 219.115 3.71168ZM224.519 29.8709C225.312 29.7988 226.789 29.7267 228.266 29.4385C231.509 28.8259 234.391 27.4928 236.661 24.9705C238.246 23.205 239.003 21.1511 238.606 18.737C238.174 16.2508 237.021 14.0889 235.4 12.2152C232.914 9.29663 229.707 7.459 226.032 6.41407C222.43 5.36915 218.755 5.36915 215.044 5.51328C214.683 5.51328 214.287 5.69344 213.963 5.8736C211.045 7.74726 208.703 10.1254 207.226 13.2601C205.929 16.0346 205.893 18.8451 207.226 21.5835C208.667 24.5381 211.009 26.5559 213.999 27.8531C217.133 29.1863 220.412 29.7628 224.519 29.8709Z" fill="#BA9465"/>
</g>
<g filter="url(#filter3_d_507_333)">
<ellipse cx="176.117" cy="16.7094" rx="14.7712" ry="14.7711" fill="#FDF0AA"/>
</g>
<g opacity="0.85" clip-path="url(#clip4_507_333)">
<path d="M173.325 3.71168C174.01 3.74771 174.694 3.81978 175.343 3.85581C179.162 4.10803 182.765 5.08089 186.043 7.06265C189.502 9.11647 192.168 11.927 193.681 15.7103C195.447 20.0702 194.618 23.8175 191.159 27.0243C190.799 27.3486 190.403 27.6729 190.006 27.9972C187.665 29.7628 184.962 30.8077 182.08 31.2401C177.324 31.9607 172.677 31.4563 168.173 29.6907C165.435 28.6097 163.093 27.0243 161.328 24.6102C158.302 20.4665 157.941 16.0706 160.427 11.5306C161.328 9.87314 162.517 8.39583 163.886 7.09868C164.138 6.84646 164.426 6.59423 164.606 6.16185C164.354 6.16185 164.102 6.12582 163.886 6.19788C162.409 6.70233 160.896 7.20678 159.454 7.78329C158.374 8.21567 157.977 8.2517 157.725 7.74726C157.509 7.24281 157.761 6.84646 158.734 6.30598C160.535 5.22502 162.553 4.68454 164.606 4.32422C165.255 4.21613 165.903 4.10803 166.552 4.03597C167.597 3.92787 168.534 3.63962 169.506 3.1712C174.046 0.973254 178.802 0.0724554 183.81 0.612934C185.791 0.829126 187.701 1.40564 189.43 2.52263C189.754 2.73882 190.114 2.95501 190.295 3.2793C190.439 3.53152 190.403 3.9639 190.223 4.18009C190.114 4.32422 189.682 4.32422 189.394 4.28819C189.25 4.28819 189.142 4.14406 188.998 4.072C187.34 2.91898 185.431 2.41453 183.485 2.23437C180.243 1.94612 177.036 2.30643 173.938 3.24326C173.758 3.2793 173.578 3.38739 173.397 3.45946C173.397 3.45946 173.397 3.53152 173.325 3.71168ZM178.73 29.8709C179.522 29.7988 180.999 29.7267 182.476 29.4385C185.719 28.8259 188.601 27.4928 190.871 24.9705C192.456 23.205 193.213 21.1511 192.817 18.737C192.384 16.2508 191.231 14.0889 189.61 12.2152C187.124 9.29663 183.918 7.459 180.243 6.41407C176.64 5.36915 172.965 5.36915 169.254 5.51328C168.894 5.51328 168.498 5.69344 168.173 5.8736C165.255 7.74726 162.913 10.1254 161.436 13.2601C160.139 16.0346 160.103 18.8451 161.436 21.5835C162.877 24.5381 165.219 26.5559 168.209 27.8531C171.344 29.1863 174.622 29.7628 178.73 29.8709Z" fill="#BA9465"/>
</g>
<line opacity="0.75" x1="0.0133208" y1="19.1407" x2="150.01" y2="20.1397" stroke="black" stroke-width="4" stroke-dasharray="2 4 6 8"/>
<defs>
<filter id="filter0_d_507_333" x="296.717" y="1.93823" width="37.5423" height="37.5422" filterUnits="userSpaceOnUse" color-interpolation-filters="sRGB">
<feFlood flood-opacity="0" result="BackgroundImageFix"/>
<feColorMatrix in="SourceAlpha" type="matrix" values="0 0 0 0 0 0 0 0 0 0 0 0 0 0 0 0 0 0 127 0" result="hardAlpha"/>
<feOffset dx="2" dy="4"/>
<feGaussianBlur stdDeviation="2"/>
<feComposite in2="hardAlpha" operator="out"/>
<feColorMatrix type="matrix" values="0 0 0 0 0 0 0 0 0 0 0 0 0 0 0 0 0 0 0.25 0"/>
<feBlend mode="normal" in2="BackgroundImageFix" result="effect1_dropShadow_507_333"/>
<feBlend mode="normal" in="SourceGraphic" in2="effect1_dropShadow_507_333" result="shape"/>
</filter>
<filter id="filter1_d_507_333" x="250.926" y="1.93823" width="37.5423" height="37.5422" filterUnits="userSpaceOnUse" color-interpolation-filters="sRGB">
<feFlood flood-opacity="0" result="BackgroundImageFix"/>
<feColorMatrix in="SourceAlpha" type="matrix" values="0 0 0 0 0 0 0 0 0 0 0 0 0 0 0 0 0 0 127 0" result="hardAlpha"/>
<feOffset dx="2" dy="4"/>
<feGaussianBlur stdDeviation="2"/>
<feComposite in2="hardAlpha" operator="out"/>
<feColorMatrix type="matrix" values="0 0 0 0 0 0 0 0 0 0 0 0 0 0 0 0 0 0 0.25 0"/>
<feBlend mode="normal" in2="BackgroundImageFix" result="effect1_dropShadow_507_333"/>
<feBlend mode="normal" in="SourceGraphic" in2="effect1_dropShadow_507_333" result="shape"/>
</filter>
<filter id="filter2_d_507_333" x="205.136" y="1.93823" width="37.5423" height="37.5422" filterUnits="userSpaceOnUse" color-interpolation-filters="sRGB">
<feFlood flood-opacity="0" result="BackgroundImageFix"/>
<feColorMatrix in="SourceAlpha" type="matrix" values="0 0 0 0 0 0 0 0 0 0 0 0 0 0 0 0 0 0 127 0" result="hardAlpha"/>
<feOffset dx="2" dy="4"/>
<feGaussianBlur stdDeviation="2"/>
<feComposite in2="hardAlpha" operator="out"/>
<feColorMatrix type="matrix" values="0 0 0 0 0 0 0 0 0 0 0 0 0 0 0 0 0 0 0.25 0"/>
<feBlend mode="normal" in2="BackgroundImageFix" result="effect1_dropShadow_507_333"/>
<feBlend mode="normal" in="SourceGraphic" in2="effect1_dropShadow_507_333" result="shape"/>
</filter>
<filter id="filter3_d_507_333" x="159.346" y="1.93823" width="37.5423" height="37.5422" filterUnits="userSpaceOnUse" color-interpolation-filters="sRGB">
<feFlood flood-opacity="0" result="BackgroundImageFix"/>
<feColorMatrix in="SourceAlpha" type="matrix" values="0 0 0 0 0 0 0 0 0 0 0 0 0 0 0 0 0 0 127 0" result="hardAlpha"/>
<feOffset dx="2" dy="4"/>
<feGaussianBlur stdDeviation="2"/>
<feComposite in2="hardAlpha" operator="out"/>
<feColorMatrix type="matrix" values="0 0 0 0 0 0 0 0 0 0 0 0 0 0 0 0 0 0 0.25 0"/>
<feBlend mode="normal" in2="BackgroundImageFix" result="effect1_dropShadow_507_333"/>
<feBlend mode="normal" in="SourceGraphic" in2="effect1_dropShadow_507_333" result="shape"/>
</filter>
<clipPath id="clip0_507_333">
<rect width="36.9279" height="31.0971" fill="white" transform="translate(340.814 0.459961)"/>
</clipPath>
<clipPath id="clip1_507_333">
<rect width="36.9279" height="31.0971" fill="white" transform="translate(295.024 0.459961)"/>
</clipPath>
<clipPath id="clip2_507_333">
<rect width="36.9279" height="31.0971" fill="white" transform="translate(249.234 0.459961)"/>
</clipPath>
<clipPath id="clip3_507_333">
<rect width="36.9279" height="31.0971" fill="white" transform="translate(203.443 0.459961)"/>
</clipPath>
<clipPath id="clip4_507_333">
<rect width="36.9279" height="31.0971" fill="white" transform="translate(157.653 0.459961)"/>
</clipPath>
</defs>
</svg>
