<svg width="418" height="40" viewBox="0 0 418 40" fill="none" xmlns="http://www.w3.org/2000/svg">
<g filter="url(#filter0_d_507_201)">
<ellipse cx="396.278" cy="17.1718" rx="14.7712" ry="14.7711" fill="#FDF0AA"/>
</g>
<g opacity="0.85" clip-path="url(#clip0_507_201)">
<path d="M393.487 4.18238C394.171 4.21842 394.856 4.29048 395.504 4.32651C399.323 4.57873 402.926 5.5516 406.205 7.53335C409.663 9.58717 412.329 12.3977 413.843 16.181C415.608 20.5409 414.779 24.2882 411.321 27.495C410.96 27.8193 410.564 28.1436 410.168 28.4679C407.826 30.2335 405.124 31.2784 402.242 31.7108C397.486 32.4314 392.838 31.927 388.335 30.1614C385.596 29.0804 383.255 27.495 381.489 25.0809C378.463 20.9372 378.103 16.5413 380.589 12.0013C381.489 10.3438 382.678 8.86653 384.047 7.56938C384.299 7.31716 384.588 7.06494 384.768 6.63255C384.516 6.63255 384.263 6.59652 384.047 6.66859C382.57 7.17303 381.057 7.67748 379.616 8.25399C378.535 8.68637 378.139 8.72241 377.886 8.21796C377.67 7.71351 377.922 7.31716 378.895 6.77668C380.697 5.69572 382.714 5.15524 384.768 4.79493C385.416 4.68683 386.065 4.57873 386.713 4.50667C387.758 4.39857 388.695 4.11032 389.668 3.6419C394.207 1.44396 398.963 0.543159 403.971 1.08364C405.952 1.29983 407.862 1.87634 409.591 2.99333C409.916 3.20952 410.276 3.42571 410.456 3.75C410.6 4.00222 410.564 4.43461 410.384 4.6508C410.276 4.79493 409.844 4.79493 409.555 4.75889C409.411 4.75889 409.303 4.61477 409.159 4.5427C407.502 3.38968 405.592 2.88523 403.647 2.70507C400.404 2.41682 397.198 2.77714 394.099 3.71397C393.919 3.75 393.739 3.8581 393.559 3.93016C393.559 3.93016 393.559 4.00222 393.487 4.18238ZM398.891 30.3416C399.684 30.2695 401.161 30.1974 402.638 29.9092C405.88 29.2966 408.763 27.9635 411.032 25.4412C412.618 23.6757 413.374 21.6218 412.978 19.2077C412.546 16.7215 411.393 14.5596 409.771 12.6859C407.286 9.76733 404.079 7.9297 400.404 6.88478C396.801 5.83985 393.126 5.83985 389.415 5.98398C389.055 5.98398 388.659 6.16414 388.335 6.3443C385.416 8.21796 383.075 10.5961 381.597 13.7308C380.3 16.5053 380.264 19.3158 381.597 22.0542C383.038 25.0088 385.38 27.0266 388.371 28.3238C391.505 29.657 394.784 30.2335 398.891 30.3416Z" fill="#BA9465"/>
</g>
<g filter="url(#filter1_d_507_201)">
<ellipse cx="350.488" cy="17.1718" rx="14.7712" ry="14.7711" fill="#FDF0AA"/>
</g>
<g opacity="0.85" clip-path="url(#clip1_507_201)">
<path d="M347.696 4.18238C348.381 4.21842 349.065 4.29048 349.714 4.32651C353.533 4.57873 357.136 5.5516 360.414 7.53335C363.873 9.58717 366.539 12.3977 368.052 16.181C369.818 20.5409 368.989 24.2882 365.53 27.495C365.17 27.8193 364.774 28.1436 364.377 28.4679C362.036 30.2335 359.334 31.2784 356.451 31.7108C351.696 32.4314 347.048 31.927 342.544 30.1614C339.806 29.0804 337.464 27.495 335.699 25.0809C332.673 20.9372 332.312 16.5413 334.798 12.0013C335.699 10.3438 336.888 8.86653 338.257 7.56938C338.509 7.31716 338.797 7.06494 338.978 6.63255C338.725 6.63255 338.473 6.59652 338.257 6.66859C336.78 7.17303 335.267 7.67748 333.826 8.25399C332.745 8.68637 332.348 8.72241 332.096 8.21796C331.88 7.71351 332.132 7.31716 333.105 6.77668C334.906 5.69572 336.924 5.15524 338.978 4.79493C339.626 4.68683 340.275 4.57873 340.923 4.50667C341.968 4.39857 342.905 4.11032 343.877 3.6419C348.417 1.44396 353.173 0.543159 358.181 1.08364C360.162 1.29983 362.072 1.87634 363.801 2.99333C364.125 3.20952 364.486 3.42571 364.666 3.75C364.81 4.00222 364.774 4.43461 364.594 4.6508C364.486 4.79493 364.053 4.79493 363.765 4.75889C363.621 4.75889 363.513 4.61477 363.369 4.5427C361.711 3.38968 359.802 2.88523 357.856 2.70507C354.614 2.41682 351.407 2.77714 348.309 3.71397C348.129 3.75 347.949 3.8581 347.768 3.93016C347.768 3.93016 347.768 4.00222 347.696 4.18238ZM353.101 30.3416C353.893 30.2695 355.37 30.1974 356.848 29.9092C360.09 29.2966 362.972 27.9635 365.242 25.4412C366.827 23.6757 367.584 21.6218 367.188 19.2077C366.755 16.7215 365.602 14.5596 363.981 12.6859C361.495 9.76733 358.289 7.9297 354.614 6.88478C351.011 5.83985 347.336 5.83985 343.625 5.98398C343.265 5.98398 342.869 6.16414 342.544 6.3443C339.626 8.21796 337.284 10.5961 335.807 13.7308C334.51 16.5053 334.474 19.3158 335.807 22.0542C337.248 25.0088 339.59 27.0266 342.58 28.3238C345.715 29.657 348.993 30.2335 353.101 30.3416Z" fill="#BA9465"/>
</g>
<g filter="url(#filter2_d_507_201)">
<ellipse cx="304.697" cy="17.1718" rx="14.7712" ry="14.7711" fill="#FDF0AA"/>
</g>
<g opacity="0.85" clip-path="url(#clip2_507_201)">
<path d="M301.906 4.18238C302.591 4.21842 303.275 4.29048 303.924 4.32651C307.743 4.57873 311.345 5.5516 314.624 7.53335C318.083 9.58717 320.749 12.3977 322.262 16.181C324.027 20.5409 323.199 24.2882 319.74 27.495C319.38 27.8193 318.983 28.1436 318.587 28.4679C316.245 30.2335 313.543 31.2784 310.661 31.7108C305.905 32.4314 301.258 31.927 296.754 30.1614C294.016 29.0804 291.674 27.495 289.909 25.0809C286.882 20.9372 286.522 16.5413 289.008 12.0013C289.909 10.3438 291.098 8.86653 292.467 7.56938C292.719 7.31716 293.007 7.06494 293.187 6.63255C292.935 6.63255 292.683 6.59652 292.467 6.66859C290.989 7.17303 289.476 7.67748 288.035 8.25399C286.954 8.68637 286.558 8.72241 286.306 8.21796C286.09 7.71351 286.342 7.31716 287.315 6.77668C289.116 5.69572 291.134 5.15524 293.187 4.79493C293.836 4.68683 294.484 4.57873 295.133 4.50667C296.178 4.39857 297.114 4.11032 298.087 3.6419C302.627 1.44396 307.382 0.543159 312.39 1.08364C314.372 1.29983 316.281 1.87634 318.011 2.99333C318.335 3.20952 318.695 3.42571 318.875 3.75C319.019 4.00222 318.983 4.43461 318.803 4.6508C318.695 4.79493 318.263 4.79493 317.975 4.75889C317.831 4.75889 317.722 4.61477 317.578 4.5427C315.921 3.38968 314.012 2.88523 312.066 2.70507C308.823 2.41682 305.617 2.77714 302.519 3.71397C302.338 3.75 302.158 3.8581 301.978 3.93016C301.978 3.93016 301.978 4.00222 301.906 4.18238ZM307.31 30.3416C308.103 30.2695 309.58 30.1974 311.057 29.9092C314.3 29.2966 317.182 27.9635 319.452 25.4412C321.037 23.6757 321.794 21.6218 321.397 19.2077C320.965 16.7215 319.812 14.5596 318.191 12.6859C315.705 9.76733 312.498 7.9297 308.823 6.88478C305.221 5.83985 301.546 5.83985 297.835 5.98398C297.475 5.98398 297.078 6.16414 296.754 6.3443C293.836 8.21796 291.494 10.5961 290.017 13.7308C288.72 16.5053 288.684 19.3158 290.017 22.0542C291.458 25.0088 293.8 27.0266 296.79 28.3238C299.924 29.657 303.203 30.2335 307.31 30.3416Z" fill="#BA9465"/>
</g>
<g filter="url(#filter3_d_507_201)">
<ellipse cx="258.907" cy="17.1718" rx="14.7712" ry="14.7711" fill="#FDF0AA"/>
</g>
<g opacity="0.85" clip-path="url(#clip3_507_201)">
<path d="M256.115 4.18238C256.8 4.21842 257.484 4.29048 258.133 4.32651C261.952 4.57873 265.555 5.5516 268.833 7.53335C272.292 9.58717 274.958 12.3977 276.471 16.181C278.237 20.5409 277.408 24.2882 273.949 27.495C273.589 27.8193 273.193 28.1436 272.796 28.4679C270.454 30.2335 267.752 31.2784 264.87 31.7108C260.114 32.4314 255.467 31.927 250.963 30.1614C248.225 29.0804 245.883 27.495 244.118 25.0809C241.091 20.9372 240.731 16.5413 243.217 12.0013C244.118 10.3438 245.307 8.86653 246.676 7.56938C246.928 7.31716 247.216 7.06494 247.396 6.63255C247.144 6.63255 246.892 6.59652 246.676 6.66859C245.199 7.17303 243.685 7.67748 242.244 8.25399C241.163 8.68637 240.767 8.72241 240.515 8.21796C240.299 7.71351 240.551 7.31716 241.524 6.77668C243.325 5.69572 245.343 5.15524 247.396 4.79493C248.045 4.68683 248.693 4.57873 249.342 4.50667C250.387 4.39857 251.323 4.11032 252.296 3.6419C256.836 1.44396 261.591 0.543159 266.599 1.08364C268.581 1.29983 270.49 1.87634 272.22 2.99333C272.544 3.20952 272.904 3.42571 273.084 3.75C273.229 4.00222 273.193 4.43461 273.012 4.6508C272.904 4.79493 272.472 4.79493 272.184 4.75889C272.04 4.75889 271.932 4.61477 271.787 4.5427C270.13 3.38968 268.221 2.88523 266.275 2.70507C263.033 2.41682 259.826 2.77714 256.728 3.71397C256.548 3.75 256.367 3.8581 256.187 3.93016C256.187 3.93016 256.187 4.00222 256.115 4.18238ZM261.519 30.3416C262.312 30.2695 263.789 30.1974 265.266 29.9092C268.509 29.2966 271.391 27.9635 273.661 25.4412C275.246 23.6757 276.003 21.6218 275.606 19.2077C275.174 16.7215 274.021 14.5596 272.4 12.6859C269.914 9.76733 266.707 7.9297 263.033 6.88478C259.43 5.83985 255.755 5.83985 252.044 5.98398C251.684 5.98398 251.287 6.16414 250.963 6.3443C248.045 8.21796 245.703 10.5961 244.226 13.7308C242.929 16.5053 242.893 19.3158 244.226 22.0542C245.667 25.0088 248.009 27.0266 250.999 28.3238C254.134 29.657 257.412 30.2335 261.519 30.3416Z" fill="#BA9465"/>
</g>
<g filter="url(#filter4_d_507_201)">
<ellipse cx="213.117" cy="17.1718" rx="14.7712" ry="14.7711" fill="#FDF0AA"/>
</g>
<g opacity="0.85" clip-path="url(#clip4_507_201)">
<path d="M210.325 4.18238C211.01 4.21842 211.694 4.29048 212.343 4.32651C216.162 4.57873 219.764 5.5516 223.043 7.53335C226.502 9.58717 229.168 12.3977 230.681 16.181C232.446 20.5409 231.618 24.2882 228.159 27.495C227.799 27.8193 227.402 28.1436 227.006 28.4679C224.664 30.2335 221.962 31.2784 219.08 31.7108C214.324 32.4314 209.677 31.927 205.173 30.1614C202.435 29.0804 200.093 27.495 198.328 25.0809C195.301 20.9372 194.941 16.5413 197.427 12.0013C198.328 10.3438 199.517 8.86653 200.886 7.56938C201.138 7.31716 201.426 7.06494 201.606 6.63255C201.354 6.63255 201.102 6.59652 200.886 6.66859C199.408 7.17303 197.895 7.67748 196.454 8.25399C195.373 8.68637 194.977 8.72241 194.725 8.21796C194.509 7.71351 194.761 7.31716 195.734 6.77668C197.535 5.69572 199.553 5.15524 201.606 4.79493C202.255 4.68683 202.903 4.57873 203.552 4.50667C204.597 4.39857 205.533 4.11032 206.506 3.6419C211.046 1.44396 215.801 0.543159 220.809 1.08364C222.791 1.29983 224.7 1.87634 226.43 2.99333C226.754 3.20952 227.114 3.42571 227.294 3.75C227.438 4.00222 227.402 4.43461 227.222 4.6508C227.114 4.79493 226.682 4.79493 226.394 4.75889C226.25 4.75889 226.141 4.61477 225.997 4.5427C224.34 3.38968 222.431 2.88523 220.485 2.70507C217.242 2.41682 214.036 2.77714 210.938 3.71397C210.757 3.75 210.577 3.8581 210.397 3.93016C210.397 3.93016 210.397 4.00222 210.325 4.18238ZM215.729 30.3416C216.522 30.2695 217.999 30.1974 219.476 29.9092C222.719 29.2966 225.601 27.9635 227.871 25.4412C229.456 23.6757 230.213 21.6218 229.816 19.2077C229.384 16.7215 228.231 14.5596 226.61 12.6859C224.124 9.76733 220.917 7.9297 217.242 6.88478C213.64 5.83985 209.965 5.83985 206.254 5.98398C205.894 5.98398 205.497 6.16414 205.173 6.3443C202.255 8.21796 199.913 10.5961 198.436 13.7308C197.139 16.5053 197.103 19.3158 198.436 22.0542C199.877 25.0088 202.219 27.0266 205.209 28.3238C208.344 29.657 211.622 30.2335 215.729 30.3416Z" fill="#BA9465"/>
</g>
<line opacity="0.75" x1="0.0133208" y1="15.1727" x2="184.009" y2="16.3982" stroke="black" stroke-width="4" stroke-dasharray="2 4 6 8"/>
<defs>
<filter id="filter0_d_507_201" x="379.506" y="2.40063" width="37.5423" height="37.5422" filterUnits="userSpaceOnUse" color-interpolation-filters="sRGB">
<feFlood flood-opacity="0" result="BackgroundImageFix"/>
<feColorMatrix in="SourceAlpha" type="matrix" values="0 0 0 0 0 0 0 0 0 0 0 0 0 0 0 0 0 0 127 0" result="hardAlpha"/>
<feOffset dx="2" dy="4"/>
<feGaussianBlur stdDeviation="2"/>
<feComposite in2="hardAlpha" operator="out"/>
<feColorMatrix type="matrix" values="0 0 0 0 0 0 0 0 0 0 0 0 0 0 0 0 0 0 0.25 0"/>
<feBlend mode="normal" in2="BackgroundImageFix" result="effect1_dropShadow_507_201"/>
<feBlend mode="normal" in="SourceGraphic" in2="effect1_dropShadow_507_201" result="shape"/>
</filter>
<filter id="filter1_d_507_201" x="333.717" y="2.40063" width="37.5423" height="37.5422" filterUnits="userSpaceOnUse" color-interpolation-filters="sRGB">
<feFlood flood-opacity="0" result="BackgroundImageFix"/>
<feColorMatrix in="SourceAlpha" type="matrix" values="0 0 0 0 0 0 0 0 0 0 0 0 0 0 0 0 0 0 127 0" result="hardAlpha"/>
<feOffset dx="2" dy="4"/>
<feGaussianBlur stdDeviation="2"/>
<feComposite in2="hardAlpha" operator="out"/>
<feColorMatrix type="matrix" values="0 0 0 0 0 0 0 0 0 0 0 0 0 0 0 0 0 0 0.25 0"/>
<feBlend mode="normal" in2="BackgroundImageFix" result="effect1_dropShadow_507_201"/>
<feBlend mode="normal" in="SourceGraphic" in2="effect1_dropShadow_507_201" result="shape"/>
</filter>
<filter id="filter2_d_507_201" x="287.926" y="2.40063" width="37.5423" height="37.5422" filterUnits="userSpaceOnUse" color-interpolation-filters="sRGB">
<feFlood flood-opacity="0" result="BackgroundImageFix"/>
<feColorMatrix in="SourceAlpha" type="matrix" values="0 0 0 0 0 0 0 0 0 0 0 0 0 0 0 0 0 0 127 0" result="hardAlpha"/>
<feOffset dx="2" dy="4"/>
<feGaussianBlur stdDeviation="2"/>
<feComposite in2="hardAlpha" operator="out"/>
<feColorMatrix type="matrix" values="0 0 0 0 0 0 0 0 0 0 0 0 0 0 0 0 0 0 0.25 0"/>
<feBlend mode="normal" in2="BackgroundImageFix" result="effect1_dropShadow_507_201"/>
<feBlend mode="normal" in="SourceGraphic" in2="effect1_dropShadow_507_201" result="shape"/>
</filter>
<filter id="filter3_d_507_201" x="242.136" y="2.40063" width="37.5423" height="37.5422" filterUnits="userSpaceOnUse" color-interpolation-filters="sRGB">
<feFlood flood-opacity="0" result="BackgroundImageFix"/>
<feColorMatrix in="SourceAlpha" type="matrix" values="0 0 0 0 0 0 0 0 0 0 0 0 0 0 0 0 0 0 127 0" result="hardAlpha"/>
<feOffset dx="2" dy="4"/>
<feGaussianBlur stdDeviation="2"/>
<feComposite in2="hardAlpha" operator="out"/>
<feColorMatrix type="matrix" values="0 0 0 0 0 0 0 0 0 0 0 0 0 0 0 0 0 0 0.25 0"/>
<feBlend mode="normal" in2="BackgroundImageFix" result="effect1_dropShadow_507_201"/>
<feBlend mode="normal" in="SourceGraphic" in2="effect1_dropShadow_507_201" result="shape"/>
</filter>
<filter id="filter4_d_507_201" x="196.346" y="2.40063" width="37.5423" height="37.5422" filterUnits="userSpaceOnUse" color-interpolation-filters="sRGB">
<feFlood flood-opacity="0" result="BackgroundImageFix"/>
<feColorMatrix in="SourceAlpha" type="matrix" values="0 0 0 0 0 0 0 0 0 0 0 0 0 0 0 0 0 0 127 0" result="hardAlpha"/>
<feOffset dx="2" dy="4"/>
<feGaussianBlur stdDeviation="2"/>
<feComposite in2="hardAlpha" operator="out"/>
<feColorMatrix type="matrix" values="0 0 0 0 0 0 0 0 0 0 0 0 0 0 0 0 0 0 0.25 0"/>
<feBlend mode="normal" in2="BackgroundImageFix" result="effect1_dropShadow_507_201"/>
<feBlend mode="normal" in="SourceGraphic" in2="effect1_dropShadow_507_201" result="shape"/>
</filter>
<clipPath id="clip0_507_201">
<rect width="36.9279" height="31.0971" fill="white" transform="translate(377.814 0.930664)"/>
</clipPath>
<clipPath id="clip1_507_201">
<rect width="36.9279" height="31.0971" fill="white" transform="translate(332.024 0.930664)"/>
</clipPath>
<clipPath id="clip2_507_201">
<rect width="36.9279" height="31.0971" fill="white" transform="translate(286.234 0.930664)"/>
</clipPath>
<clipPath id="clip3_507_201">
<rect width="36.9279" height="31.0971" fill="white" transform="translate(240.443 0.930664)"/>
</clipPath>
<clipPath id="clip4_507_201">
<rect width="36.9279" height="31.0971" fill="white" transform="translate(194.653 0.930664)"/>
</clipPath>
</defs>
</svg>
